<svg width="80" height="80" viewBox="0 0 80 80" fill="none" xmlns="http://www.w3.org/2000/svg">
<g id="automatic_transmission_wa5pyty42uge 1" clip-path="url(#clip0_92_449)">
<path id="Vector" d="M67.499 18.7504C68.8797 18.7504 69.9989 17.631 69.9989 16.2504V13.7505H73.7489C77.1957 13.7505 79.9987 10.9474 79.9987 7.50061C79.9987 4.0538 77.1957 1.25073 73.7489 1.25073H67.499C66.1178 1.25073 64.999 2.36946 64.999 3.75068V16.2504C64.999 17.631 66.1182 18.7504 67.499 18.7504ZM69.9989 6.25063H73.7489C74.4379 6.25063 74.9988 6.81156 74.9988 7.50061C74.9988 8.18966 74.4379 8.75059 73.7489 8.75059H69.9989V6.25063Z" fill="#8E7C71"/>
<path id="Vector_2" d="M73.7489 21.2505H67.499C66.1178 21.2505 64.999 22.3692 64.999 23.7504V36.2502C64.999 37.6308 66.1182 38.7501 67.499 38.7501C68.8797 38.7501 69.9989 37.6308 69.9989 36.2502V33.7502H73.7489C74.4381 33.7502 74.9988 34.311 74.9988 35.0002V36.2502C74.9988 37.6308 76.118 38.7501 77.4988 38.7501C78.8795 38.7501 79.9987 37.6308 79.9987 36.2502V35.0002C79.9987 32.6507 78.727 31.2875 78.7456 31.2503C81.8101 27.1826 78.9219 21.2505 73.7489 21.2505ZM73.7489 28.7503H69.9989V26.2504H73.7489C74.4379 26.2504 74.9988 26.8113 74.9988 27.5004C74.9988 28.1894 74.4379 28.7503 73.7489 28.7503Z" fill="#8E7C71"/>
<path id="Vector_3" d="M73.7489 41.25H67.499C66.1178 41.25 64.999 42.3687 64.999 43.75V56.2497C64.999 57.6309 66.1178 58.7497 67.499 58.7497H73.7489C77.1957 58.7497 79.9987 55.9466 79.9987 52.4998V47.4999C79.9987 44.0531 77.1957 41.25 73.7489 41.25ZM74.9988 52.4998C74.9988 53.1888 74.4379 53.7498 73.7489 53.7498H69.9989V46.2499H73.7489C74.4379 46.2499 74.9988 46.8108 74.9988 47.4999V52.4998Z" fill="#8E7C71"/>
<path id="Vector_4" d="M77.4988 61.2496C76.118 61.2496 74.9988 62.369 74.9988 63.7496V69.1226L69.4511 62.1879C67.9788 60.3475 64.999 61.3923 64.999 63.7496V76.2493C64.999 77.6299 66.1182 78.7493 67.499 78.7493C68.8797 78.7493 69.9989 77.6299 69.9989 76.2493V70.8763L75.5466 77.811C77.0193 79.6515 79.9987 78.6065 79.9987 76.2493V63.7496C79.9987 62.369 78.8795 61.2496 77.4988 61.2496Z" fill="#8E7C71"/>
<path id="Vector_5" d="M18.7499 13.7505C18.7499 5.93296 28.2197 2.101 33.6871 7.56308C35.3386 9.21618 36.2496 11.413 36.2496 13.7505V32.5001H41.2495V13.7505C41.2495 6.15186 35.098 0.000732422 27.4997 0.000732422C19.9186 0.000732422 13.75 6.16936 13.75 13.7505V32.5001H18.7499V13.7505Z" fill="#8E7C71"/>
<path id="Vector_6" d="M27.4997 74.9993C22.6748 74.9993 18.7499 71.0744 18.7499 66.2495H13.75C13.75 73.8306 19.9186 79.9992 27.4997 79.9992C35.0808 79.9992 41.2495 73.8306 41.2495 66.2495H36.2496C36.2496 71.0744 32.3246 74.9993 27.4997 74.9993Z" fill="#8E7C71"/>
<path id="Vector_7" d="M7.62954 42.5H6.09363C2.73432 42.5 0 45.2343 0 48.5936V50.1561C0 53.5154 2.73432 56.2497 6.09363 56.2497H7.62954C7.5436 55.6841 7.49985 55.106 7.49985 54.5185C7.49985 43.5042 7.45251 43.6654 7.62954 42.5Z" fill="#8E7C71"/>
<path id="Vector_8" d="M41.2494 37.5188C41.2494 37.4825 18.7499 37.4967 18.7499 37.5188C15.2609 37.7641 12.5 40.6812 12.5 44.2311V54.5184C12.5 58.0683 15.2609 60.9855 18.7499 61.2308C18.7499 61.267 41.2494 61.2528 41.2494 61.2308C44.7384 60.9855 47.4993 58.0683 47.4993 54.5184V44.2311C47.4993 40.6812 44.7384 37.7641 41.2494 37.5188Z" fill="#8E7C71"/>
<path id="Vector_9" d="M56.2489 7.50073H52.499C51.1182 7.50073 49.999 8.62008 49.999 10.0007C49.999 11.3813 51.1182 12.5006 52.499 12.5006H56.2489C57.6297 12.5006 58.7489 11.3813 58.7489 10.0007C58.7489 8.62008 57.6297 7.50073 56.2489 7.50073Z" fill="#8E7C71"/>
<path id="Vector_10" d="M56.2489 27.5002H52.499C51.1182 27.5002 49.999 28.6196 49.999 30.0002C49.999 31.3808 51.1182 32.5001 52.499 32.5001H56.2489C57.6297 32.5001 58.7489 31.3808 58.7489 30.0002C58.7489 28.6196 57.6297 27.5002 56.2489 27.5002Z" fill="#8E7C71"/>
<path id="Vector_11" d="M56.2489 67.4995H52.499C51.1182 67.4995 49.999 68.6189 49.999 69.9995C49.999 71.3801 51.1182 72.4994 52.499 72.4994H56.2489C57.6297 72.4994 58.7489 71.3801 58.7489 69.9995C58.7489 68.6189 57.6297 67.4995 56.2489 67.4995Z" fill="#8E7C71"/>
<path id="Vector_12" d="M22.5 13.7504V32.5H32.4998V13.7504C32.4998 10.9934 30.2569 8.75049 27.4999 8.75049C24.7429 8.75049 22.5 10.9934 22.5 13.7504Z" fill="#8E7C71"/>
<path id="Vector_13" d="M32.4998 67.4995V66.2495C29.0092 66.2495 25.9938 66.2495 22.5 66.2495V67.4995C22.5 70.2565 24.7429 72.4994 27.4999 72.4994C30.2569 72.4994 32.4998 70.2565 32.4998 67.4995Z" fill="#8E7C71"/>
</g>
<defs>
<clipPath id="clip0_92_449">
<rect width="80" height="80" fill="white"/>
</clipPath>
</defs>
</svg>
