<svg width="98" height="98" viewBox="0 0 98 98" fill="none" xmlns="http://www.w3.org/2000/svg">
<g id="game-icons:car-wheel">
<path id="Vector" d="M48.9509 4C37.0955 4 25.7256 8.70954 17.3426 17.0926C8.95954 25.4756 4.25 36.8455 4.25 48.7009C4.25 60.5563 8.95954 71.9262 17.3426 80.3092C25.7256 88.6923 37.0955 93.4018 48.9509 93.4018C54.8211 93.4018 60.6338 92.2456 66.0572 89.9991C71.4806 87.7527 76.4083 84.4601 80.5592 80.3092C84.7101 76.1583 88.0027 71.2306 90.2491 65.8072C92.4956 60.3838 93.6518 54.5711 93.6518 48.7009C93.6518 42.8307 92.4956 37.018 90.2491 31.5946C88.0027 26.1712 84.7101 21.2435 80.5592 17.0926C76.4083 12.9417 71.4806 9.64908 66.0572 7.40265C60.6338 5.15622 54.8211 4 48.9509 4ZM48.9509 19.5978C65.0038 19.5978 78.054 32.6479 78.054 48.7009C78.054 64.7538 65.0038 77.804 48.9509 77.804C32.8979 77.804 19.8478 64.7538 19.8478 48.7009C19.8478 32.6479 32.8979 19.5978 48.9509 19.5978ZM48.9509 23.0217C45.0672 23.0217 41.3885 23.8814 38.0914 25.4188C40.2879 31.6731 44.0467 39.5705 48.9509 39.5705C53.8629 39.5705 57.4966 31.648 59.7461 25.3889C56.4654 23.8704 52.8092 23.0217 48.9509 23.0217ZM67.7352 31.1781C62.4635 35.1999 56.1049 41.2197 57.6213 45.887C59.1395 50.5595 67.7995 51.5665 74.4477 51.7716C74.5672 50.7646 74.6301 49.7404 74.6301 48.7009C74.6301 41.9212 72.0137 35.7639 67.7352 31.1781ZM30.1238 31.2244C25.8706 35.805 23.2717 41.9438 23.2717 48.7009C23.2717 49.7566 23.3363 50.7967 23.4596 51.8186C30.0854 51.6616 38.7494 50.5264 40.2641 45.8648C41.7809 41.1965 35.3793 35.2977 30.1238 31.2244ZM43.4748 39.526C43.13 39.5357 42.7961 39.6493 42.517 39.852C42.1498 40.1189 41.9036 40.5208 41.8326 40.9692C41.7616 41.4175 41.8717 41.8758 42.1385 42.243C42.4053 42.6104 42.8071 42.8566 43.2555 42.9277C43.7039 42.9988 44.1622 42.8889 44.5295 42.6221C44.7114 42.49 44.8655 42.3233 44.983 42.1316C45.1005 41.94 45.1791 41.727 45.2143 41.5049C45.2495 41.2829 45.2406 41.056 45.1881 40.8374C45.1356 40.6188 45.0406 40.4126 44.9084 40.2307C44.7448 40.0056 44.5286 39.8237 44.2788 39.7009C44.029 39.5781 43.753 39.5181 43.4748 39.526ZM54.427 39.526C54.3867 39.5248 54.3462 39.5251 54.3059 39.5268C54.0482 39.5376 53.7964 39.6066 53.5691 39.7285C53.3418 39.8503 53.145 40.022 52.9934 40.2306C52.8612 40.4125 52.7661 40.6186 52.7136 40.8373C52.6611 41.0559 52.6522 41.2828 52.6874 41.5048C52.7226 41.7269 52.8012 41.9399 52.9187 42.1316C53.0362 42.3233 53.1903 42.49 53.3723 42.6221C53.7396 42.8889 54.1979 42.9989 54.6463 42.9278C55.0947 42.8568 55.4965 42.6105 55.7633 42.2432C56.0301 41.8759 56.1402 41.4177 56.0692 40.9693C55.9982 40.521 55.752 40.1191 55.3848 39.8522C55.1057 39.6495 54.7719 39.5358 54.427 39.526ZM48.9509 42.614C47.3365 42.614 45.7883 43.2553 44.6468 44.3968C43.5053 45.5383 42.864 47.0865 42.864 48.7009C42.864 50.3153 43.5053 51.8635 44.6468 53.005C45.7883 54.1465 47.3365 54.7878 48.9509 54.7878C50.5653 54.7878 52.1135 54.1465 53.255 53.005C54.3965 51.8635 55.0378 50.3153 55.0378 48.7009C55.0378 47.0865 54.3965 45.5383 53.255 44.3968C52.1135 43.2553 50.5653 42.614 48.9509 42.614ZM40.1444 49.8492C39.973 49.8517 39.803 49.8799 39.64 49.9329C39.4261 50.0024 39.2281 50.1133 39.0571 50.2593C38.8861 50.4053 38.7455 50.5835 38.6434 50.7838C38.5413 50.9841 38.4797 51.2026 38.462 51.4268C38.4444 51.6509 38.4711 51.8763 38.5405 52.0902C38.6809 52.5219 38.9869 52.8803 39.3915 53.0864C39.796 53.2925 40.2658 53.3295 40.6976 53.1893C40.9114 53.1198 41.1095 53.0089 41.2804 52.8629C41.4514 52.717 41.592 52.5387 41.6941 52.3384C41.7962 52.1381 41.8578 51.9197 41.8755 51.6955C41.8931 51.4714 41.8665 51.246 41.797 51.0322C41.6841 50.6843 41.4627 50.3818 41.1653 50.1689C40.8679 49.9561 40.5101 49.844 40.1444 49.8492ZM57.8072 49.8508C57.4333 49.8345 57.0644 49.9412 56.757 50.1546C56.4495 50.3679 56.2204 50.6761 56.1048 51.032C56.0353 51.2458 56.0087 51.4712 56.0263 51.6954C56.044 51.9195 56.1056 52.1379 56.2077 52.3382C56.3098 52.5385 56.4504 52.7168 56.6213 52.8628C56.7923 53.0087 56.9904 53.1196 57.2042 53.1891C57.636 53.3293 58.1058 53.2924 58.5103 53.0863C58.9148 52.8802 59.2209 52.5219 59.3613 52.0902C59.4307 51.8763 59.4574 51.6509 59.4398 51.4268C59.4221 51.2026 59.3605 50.9841 59.2584 50.7838C59.1563 50.5835 59.0157 50.4053 58.8447 50.2593C58.6737 50.1133 58.4757 50.0024 58.2618 49.9329C58.1147 49.8851 57.9617 49.8575 57.8072 49.8508ZM40.2801 55.1222C36.1733 55.142 30.7236 58.324 26.5038 61.1955C30.1235 67.6948 36.4826 72.4494 44.0309 73.909C45.9312 67.5576 47.5347 58.9545 43.5657 56.071C42.6424 55.4001 41.5233 55.1161 40.2801 55.1222ZM57.5928 55.126C56.3412 55.126 55.2166 55.4144 54.2933 56.0851C50.3187 58.9728 52.0368 67.5183 53.8961 73.9042C61.4453 72.4367 67.8025 67.6727 71.4151 61.1648C67.2292 58.269 61.7264 55.126 57.5928 55.1258V55.126ZM48.9509 56.2297C48.4969 56.2297 48.0614 56.41 47.7404 56.7311C47.4193 57.0521 47.2389 57.4876 47.2389 57.9416C47.2389 58.3957 47.4193 58.8311 47.7404 59.1522C48.0614 59.4732 48.4969 59.6536 48.9509 59.6536C49.4049 59.6536 49.8404 59.4732 50.1614 59.1522C50.4825 58.8311 50.6628 58.3957 50.6628 57.9416C50.6628 57.4876 50.4825 57.0521 50.1614 56.7311C49.8404 56.41 49.4049 56.2297 48.9509 56.2297Z" fill="#8E7C71"/>
</g>
</svg>
