<svg width="55" height="73" viewBox="0 0 55 73" fill="none" xmlns="http://www.w3.org/2000/svg">
<path d="M53.4556 25.8216C54.0461 25.8216 54.5249 25.3429 54.5249 24.7522V12.7393C54.5249 12.2016 54.2074 11.7136 53.7156 11.4952L28.0524 0.116968C27.7014 -0.039013 27.299 -0.0388704 26.9487 0.116683L1.28443 11.4953C0.792965 11.7134 0.475586 12.2016 0.475586 12.7393V34.9516C0.475586 43.2538 2.98197 51.2442 7.72356 58.059C12.4651 64.8738 19.0862 70.0013 26.8707 72.8871C27.2766 73.0377 27.724 73.0377 28.1301 72.887C35.9146 70.0012 42.5355 64.8737 47.2771 58.0588C52.0187 51.244 54.5251 43.2536 54.5251 34.9516V29.7426C54.5251 29.1519 54.0463 28.6733 53.4557 28.6733C52.8652 28.6733 52.3864 29.1519 52.3864 29.7426V34.9516C52.3864 50.8582 42.3901 65.2647 27.5005 70.8394C12.6093 65.2656 2.61412 50.8592 2.61412 34.9516V13.2452L27.5002 2.21159L52.3862 13.2452V24.7522C52.3862 25.3429 52.865 25.8216 53.4556 25.8216Z" fill="#8E7C71"/>
<path d="M32.9524 35.7965C33.37 36.2139 34.0471 36.2139 34.4646 35.7965L38.0396 32.2215C38.7013 31.5596 38.7013 30.483 38.0396 29.8213L35.146 26.9274C34.4843 26.2657 33.4077 26.2658 32.7458 26.9274L24.826 34.8473L21.3205 31.3416C20.6587 30.6799 19.582 30.6798 18.9203 31.3416L16.0264 34.2355C15.3648 34.8974 15.365 35.974 16.0265 36.6357L23.6259 44.2351C24.2879 44.897 25.3643 44.8965 26.0261 44.2351L30.8735 39.3877C31.2911 38.97 31.2911 38.293 30.8735 37.8754C30.4559 37.4579 29.7788 37.4579 29.3613 37.8754L24.826 42.4108L17.851 35.4356L20.1204 33.1662L23.6259 36.6719C24.2878 37.3337 25.3644 37.3332 26.0261 36.6719L33.9458 28.752L36.2152 31.0214L32.9523 34.2843C32.5347 34.7019 32.5347 35.3789 32.9524 35.7965Z" fill="#8E7C71"/>
<path d="M27.5004 68.6764C28.0909 68.6764 28.5697 68.1978 28.5697 67.6071V52.2106C37.5374 51.6567 44.6638 44.1851 44.6638 35.0804C44.6638 25.9756 37.5376 18.5038 28.5697 17.9499V5.37158C28.5697 4.78088 28.0909 4.30225 27.5004 4.30225C26.9098 4.30225 26.431 4.78088 26.431 5.37158V17.9506C24.0435 18.1001 21.6968 18.748 19.5861 19.8467C19.0623 20.1193 18.8585 20.7651 19.1313 21.2889C19.4042 21.813 20.0499 22.0166 20.5736 21.7436C22.4096 20.7879 24.3755 20.2342 26.431 20.0922V25.236C26.431 25.8267 26.9098 26.3054 27.5004 26.3054C28.0909 26.3054 28.5697 25.8267 28.5697 25.236V20.0931C36.3573 20.6433 42.5251 27.155 42.5251 35.0802C42.5251 43.0053 36.3573 49.517 28.5697 50.0672V47.5081C28.5697 46.9174 28.0909 46.4387 27.5004 46.4387C26.9098 46.4387 26.431 46.9174 26.431 47.5081V50.0672C18.6434 49.517 12.4756 43.0053 12.4756 35.0802C12.4756 31.1192 14.0036 27.3813 16.7782 24.5549C17.1919 24.1335 17.1857 23.4565 16.7642 23.0429C16.3427 22.6291 15.6656 22.6354 15.252 23.0569C12.0825 26.2856 10.3369 30.5555 10.3369 35.0804C10.3369 44.1851 17.4633 51.6568 26.431 52.2106V67.6069C26.431 68.1976 26.9098 68.6764 27.5004 68.6764Z" fill="#8E7C71"/>
</svg>
