<svg width="102" height="102" viewBox="0 0 102 102" fill="none" xmlns="http://www.w3.org/2000/svg">
<g id="oil-can-svgrepo-com 2" clip-path="url(#clip0_92_446)">
<path id="Vector" d="M100.182 35.6846L66.1729 45.8157L58.1415 41.8008C56.7278 41.0942 55.1693 40.7261 53.5889 40.7255H44.5394V33.0902H53.4473C54.8535 33.0902 55.9924 31.9512 55.9924 30.5451V27.9999C55.9924 26.5938 54.8535 25.4548 53.4473 25.4548H27.9962C26.59 25.4548 25.4511 26.5938 25.4511 27.9999V30.5451C25.4511 31.9512 26.59 33.0902 27.9962 33.0902H36.9041V40.7255H27.9962L6.0001 36.7265C5.6963 36.6704 5.38802 36.6422 5.07909 36.6422C2.33355 36.6422 0 38.8739 0 41.734V56.8376C0 59.2968 1.75931 61.4061 4.18034 61.8451L15.2707 63.8637V71.2668C15.2707 74.0776 17.5501 76.357 20.3609 76.357H64.0461C65.4062 76.357 66.7105 75.813 67.6665 74.8443L101.431 40.6841C101.669 40.4455 101.803 40.121 101.803 39.7838V36.9078C101.804 36.0632 100.995 35.4523 100.182 35.6846ZM15.2707 56.1027L7.63533 54.7141V44.7834L15.2707 46.172V56.1027ZM87.3816 69.5695C87.3816 73.3172 90.4198 76.357 94.1691 76.357C97.9183 76.357 100.957 73.3188 100.957 69.5695C100.957 65.8203 94.1691 55.9962 94.1691 55.9962C94.1691 55.9962 87.3816 65.8219 87.3816 69.5695Z" fill="#8E7C71"/>
<path id="Vector 316" d="M94.3222 55.7793C88.4252 63.4495 80.0582 76.698 94.3222 76.698C107.253 76.698 99.5818 63.4495 94.3222 55.7793Z" fill="#8E7C71"/>
</g>
<defs>
<clipPath id="clip0_92_446">
<rect width="101.804" height="101.804" fill="white"/>
</clipPath>
</defs>
</svg>
