<svg width="27" height="28" viewBox="0 0 27 28" fill="none" xmlns="http://www.w3.org/2000/svg">
<g clip-path="url(#clip0_92_154)">
<path d="M13.4903 13.0746C15.6655 13.0746 17.4288 11.3112 17.4288 9.13604C17.4288 6.96085 15.6655 5.19751 13.4903 5.19751C11.3151 5.19751 9.55176 6.96085 9.55176 9.13604C9.55176 11.3112 11.3151 13.0746 13.4903 13.0746Z" fill="#8E7C71"/>
<path d="M13.4919 0.472412C9.23263 0.472412 4.82715 3.71325 4.82715 9.13718C4.82715 14.0919 12.5581 23.5302 12.8865 23.9255C13.0365 24.1048 13.2581 24.2086 13.4919 24.2086C13.7258 24.2086 13.9473 24.1048 14.0973 23.9255C14.4258 23.5302 22.1567 14.0919 22.1567 9.13718C22.1567 4.35943 18.2697 0.472412 13.4919 0.472412ZM13.4919 14.6511C10.4518 14.6511 7.97797 12.1773 7.97797 9.13718C7.97797 6.09711 10.4518 3.62324 13.4919 3.62324C16.532 3.62324 19.0059 6.09711 19.0059 9.13718C19.0059 12.1773 16.532 14.6511 13.4919 14.6511Z" fill="#8E7C71"/>
<path d="M18.8004 20.3135C17.2816 22.5124 15.8617 24.2681 15.3089 24.9333C14.855 25.4756 14.1935 25.7848 13.4919 25.7848C12.7904 25.7848 12.1288 25.4756 11.678 24.9371C11.124 24.2703 9.7031 22.5133 8.18357 20.3135C6.14446 21.0341 4.82715 22.1567 4.82715 23.4217C4.82715 25.5968 8.70655 27.3602 13.4919 27.3602C18.2773 27.3602 22.1567 25.5968 22.1567 23.4217C22.1567 22.1568 20.8394 21.0341 18.8004 20.3135Z" fill="#8E7C71"/>
</g>
<defs>
<clipPath id="clip0_92_154">
<rect width="26.887" height="26.887" fill="white" transform="translate(0.0478516 0.472656)"/>
</clipPath>
</defs>
</svg>
