<svg width="84" height="84" viewBox="0 0 84 84" fill="none" xmlns="http://www.w3.org/2000/svg">
<g id="spark_plug_e9sjtws2bvze 1" clip-path="url(#clip0_92_251)">
<path id="Vector" d="M33.609 54.7078H51.068L51.261 50.7024H33.416L33.609 54.7078Z" fill="#8E7C71"/>
<path id="Vector_2" d="M33.2897 48.0972H51.3864L51.5651 44.397H33.1123L33.2897 48.0972Z" fill="#8E7C71"/>
<path id="Vector_3" d="M34.2458 67.9355H50.4318L50.6235 63.9314H34.0527L34.2458 67.9355Z" fill="#8E7C71"/>
<path id="Vector_4" d="M33.9294 61.3242H50.7518L50.9449 57.3201H33.7363L33.9294 61.3242Z" fill="#8E7C71"/>
<path id="Vector_5" d="M34.5703 74.6476C34.5867 74.988 34.7335 75.309 34.9802 75.544C35.227 75.7791 35.5547 75.9102 35.8955 75.9101H48.7843C49.125 75.9102 49.4528 75.7791 49.6995 75.544C49.9462 75.309 50.093 74.988 50.1094 74.6476L50.3063 70.5457H34.3721L34.5703 74.6476Z" fill="#8E7C71"/>
<path id="Vector_6" d="M51.4564 11.787H43.8733V6.77334H41.2648V11.787H38.4084V4.00698H45.6184V1.39844H37.1042C36.7583 1.39844 36.4265 1.53585 36.1819 1.78045C35.9373 2.02505 35.7999 2.35679 35.7999 2.70271V11.787H33.2227V16.6793H51.4564V11.787Z" fill="#8E7C71"/>
<path id="Vector_7" d="M30.4121 31.3257H54.2659V41.7899H30.4121V31.3257Z" fill="#8E7C71"/>
<path id="Vector_8" d="M33.2227 19.2847H51.4577V28.7145H33.2227V19.2847Z" fill="#8E7C71"/>
<path id="Vector_9" d="M37.5186 78.5137V79.5571C37.5186 80.5173 37.9 81.4383 38.579 82.1173C39.258 82.7963 40.179 83.1777 41.1392 83.1777H43.5312C44.007 83.1783 44.4783 83.085 44.918 82.9033C45.3577 82.7215 45.7573 82.4549 46.094 82.1187C46.4306 81.7824 46.6976 81.3831 46.8798 80.9436C47.062 80.504 47.1558 80.0329 47.1558 79.5571V78.5137H37.5186Z" fill="#8E7C71"/>
</g>
<defs>
<clipPath id="clip0_92_251">
<rect width="83.4733" height="83.4733" fill="white" transform="translate(0.347656 -0.00463867)"/>
</clipPath>
</defs>
</svg>
