<svg width="78" height="79" viewBox="0 0 78 79" fill="none" xmlns="http://www.w3.org/2000/svg">
<g id="suspension_dsjyz1n0dek5 1" clip-path="url(#clip0_92_310)">
<g id="Group">
<path id="Vector" d="M73.6037 26.3465H70.1424V23.705H72.3693C74.4407 23.705 76.1237 21.9845 76.1237 19.8707V19.2597C76.1237 17.1458 74.4407 15.4254 72.3693 15.4254H70.1424V13.6247H72.3693C74.4407 13.6247 76.1237 11.9043 76.1237 9.79046V9.17944C76.1237 7.06558 74.4407 5.34517 72.3693 5.34517H70.1424V3.83306C70.1424 1.71919 68.4578 -0.0012207 66.388 -0.0012207H57.1145C55.0447 -0.0012207 53.3601 1.71919 53.3601 3.83306V5.34517H51.1317C49.0619 5.34517 47.3773 7.06558 47.3773 9.17944V9.79046C47.3773 11.9043 49.0619 13.6247 51.1317 13.6247H53.3601V15.4254H51.1317C49.0619 15.4254 47.3773 17.1458 47.3773 19.2597V19.8707C47.3773 21.9845 49.0619 23.705 51.1317 23.705H53.3601V26.3465H49.8988C47.8275 26.3465 46.1445 28.0669 46.1445 30.1808V31.8457H40.7146V21.2455C40.7146 19.1316 39.0315 17.4112 36.9617 17.4112H32.4896V6.12437C32.4896 2.74681 29.7989 -0.0012207 26.4917 -0.0012207H6.00187C2.69468 -0.0012207 0.00390625 2.74681 0.00390625 6.12437V72.8732C0.00390625 76.2507 2.69468 78.9988 6.00187 78.9988H26.4917C29.7989 78.9988 32.4896 76.2507 32.4896 72.8732V61.4336H36.9617C39.0315 61.4336 40.7146 59.7132 40.7146 57.5993V47.1519H46.1445V48.8985C46.1445 51.0078 47.823 52.7267 49.8883 52.7328L73.5931 52.7976H73.6037C75.6735 52.7976 77.3581 51.0772 77.3581 48.9633V30.1808C77.3581 28.0669 75.6735 26.3465 73.6037 26.3465ZM12.9184 3.46583H18.1897L12.9184 8.3447V3.46583ZM19.5751 75.4361H14.2419L19.5751 70.5001V75.4361ZM19.5751 66.3356L12.9184 72.4967V67.4975L19.5751 61.3364V66.3356ZM19.5751 57.1704L12.9184 63.3315V58.3323L19.5751 52.1712V57.1704ZM19.5751 48.0067L12.9184 54.1678V49.167L19.5751 43.0059V48.0067ZM19.5751 38.8415L12.9184 45.0026V40.0033L19.5751 33.8423V38.8415ZM19.5751 29.6778L12.9184 35.8389V30.8381L19.5751 24.677V29.6778ZM19.5751 20.5125L12.9184 26.6736V21.5201L19.5751 15.359V20.5125ZM19.5751 11.1946L12.9184 17.3556V12.5092L19.5751 6.3481V11.1946ZM46.1445 44.066H40.7901V34.9316H46.1445V44.066ZM56.3818 26.2709V23.705H67.1207V26.2709H56.3818ZM56.3818 3.83306C56.3818 3.42108 56.7112 3.08472 57.1145 3.08472H66.388C66.7914 3.08472 67.1207 3.42108 67.1207 3.83306V5.34517H56.3818V3.83306ZM51.1317 10.5388C50.7283 10.5388 50.3989 10.2024 50.3989 9.79046V9.17944C50.3989 8.76593 50.7283 8.4311 51.1317 8.4311H72.3693C72.7742 8.4311 73.1021 8.76593 73.1021 9.17944V9.79046C73.1021 10.2024 72.7742 10.5388 72.3693 10.5388H51.1317ZM67.1207 13.6247V15.4254H56.3818V13.6247H67.1207ZM51.1317 20.619C50.7283 20.619 50.3989 20.2842 50.3989 19.8707V19.2597C50.3989 18.8477 50.7283 18.5113 51.1317 18.5113H72.3693C72.7742 18.5113 73.1021 18.8477 73.1021 19.2597V19.8707C73.1021 20.2842 72.7742 20.619 72.3693 20.619H51.1317Z" fill="#8E7C71"/>
</g>
</g>
<defs>
<clipPath id="clip0_92_310">
<rect width="77.3542" height="79" fill="white"/>
</clipPath>
</defs>
</svg>
