<svg width="228" height="51" viewBox="0 0 228 51" fill="none" xmlns="http://www.w3.org/2000/svg">
<g id="Group 42850">
<path id="Rectangle 2085" d="M0 0H157.028V50.166H0V0Z" fill="#8E7C71"/>
<g id="Volkswagen">
<path d="M22.8993 15.3945L16.7176 34.0445H13.9934L7.83789 15.3945H11.6098L15.3555 27.5484L19.1012 15.3945H22.8993Z" fill="white"/>
<path d="M34.8178 27.2079C34.8178 28.5176 34.7043 29.5828 34.4773 30.4035C34.2678 31.2068 33.8661 31.914 33.2724 32.5252C32.1897 33.6428 30.7753 34.2016 29.029 34.2016C27.3002 34.2016 25.8945 33.6428 24.8118 32.5252C24.2181 31.8966 23.8077 31.1806 23.5807 30.3773C23.3712 29.5566 23.2664 28.5001 23.2664 27.2079C23.2664 25.9157 23.3712 24.8679 23.5807 24.0647C23.8077 23.2614 24.2181 22.5454 24.8118 21.9168C25.8945 20.7992 27.3002 20.2404 29.029 20.2404C30.8102 20.2404 32.2246 20.7992 33.2724 21.9168C33.8661 22.5454 34.2678 23.2614 34.4773 24.0647C34.7043 24.8679 34.8178 25.9157 34.8178 27.2079ZM31.4126 27.2079C31.4126 25.514 31.1507 24.4139 30.6268 23.9075C30.2252 23.5058 29.6926 23.305 29.029 23.305C28.3829 23.305 27.859 23.5058 27.4574 23.9075C26.9335 24.4139 26.6716 25.514 26.6716 27.2079C26.6716 28.9192 26.9335 30.0281 27.4574 30.5345C27.859 30.9361 28.3829 31.137 29.029 31.137C29.6926 31.137 30.2252 30.9361 30.6268 30.5345C31.1507 30.0281 31.4126 28.9192 31.4126 27.2079Z" fill="white"/>
<path d="M43.8538 34.0445H41.9155C40.6058 34.0445 39.6105 33.6603 38.9294 32.8919C38.2658 32.1236 37.9341 31.2068 37.9341 30.1416V15.3945H41.3392V29.932C41.3392 30.7528 41.7409 31.1631 42.5441 31.1631H43.8538V34.0445Z" fill="white"/>
<path d="M58.9989 34.0445H54.7817L51.4289 28.3604L49.9883 29.9844V34.0445H46.5831V15.3945H49.9883V25.9768L54.5198 20.3975H58.6322L53.7602 25.8982L58.9989 34.0445Z" fill="white"/>
<path d="M70.6897 29.7487C70.6897 31.1981 70.1484 32.3069 69.0657 33.0753C67.983 33.8262 66.5947 34.2016 64.9009 34.2016C63.6436 34.2016 62.5609 34.0706 61.6529 33.8087C60.7448 33.5468 59.8892 33.0229 59.0859 32.2371L61.3123 30.0106C62.1505 30.8663 63.3642 31.2941 64.9533 31.2941C65.6169 31.2941 66.1844 31.1806 66.6559 30.9536C67.1274 30.7091 67.3631 30.3511 67.3631 29.8797C67.3631 29.1288 66.8829 28.7097 65.9224 28.6224L63.7222 28.4128C61.1028 28.1509 59.7931 26.8761 59.7931 24.5885C59.7931 23.2264 60.2995 22.1612 61.3123 21.3929C62.3426 20.6245 63.5912 20.2404 65.058 20.2404C67.3806 20.2404 69.1181 20.773 70.2706 21.8382L68.1751 23.9599C67.4941 23.3487 66.4376 23.0431 65.0057 23.0431C64.3596 23.0431 63.8706 23.1741 63.5388 23.436C63.2245 23.6805 63.0673 23.9861 63.0673 24.3528C63.0673 25.0338 63.5388 25.4267 64.4818 25.5315L66.6297 25.741C69.3364 26.003 70.6897 27.3389 70.6897 29.7487Z" fill="white"/>
<path d="M91.4083 20.3975L87.2435 34.0445H84.4408L81.5857 25.4791L78.7306 34.0445H75.9278L71.7368 20.3975H75.3516L77.5518 28.8319L80.3284 20.3975H82.8168L85.6195 28.8319L87.8198 20.3975H91.4083Z" fill="white"/>
<path d="M103.612 34.0445H100.286V32.8657C99.814 33.3372 99.3251 33.6777 98.8187 33.8873C98.3297 34.0794 97.7011 34.1754 96.9327 34.1754C95.4135 34.1754 94.2522 33.7738 93.449 32.9705C92.6981 32.1847 92.3226 31.1631 92.3226 29.9058C92.3226 28.7533 92.7243 27.8104 93.5275 27.0769C94.3308 26.326 95.5008 25.9506 97.0375 25.9506H100.207V25.2696C100.207 24.5187 100.006 23.9773 99.6045 23.6455C99.2028 23.2963 98.5567 23.1217 97.6661 23.1217C96.6009 23.1217 95.7278 23.5146 95.0468 24.3004L92.8989 22.1787C93.5625 21.4453 94.2522 20.9389 94.9682 20.6595C95.7016 20.3801 96.6446 20.2404 97.7971 20.2404C101.674 20.2404 103.612 21.8469 103.612 25.06V34.0445ZM100.207 29.0153V28.2818H97.6138C96.2691 28.2818 95.5968 28.8057 95.5968 29.8535C95.5968 30.8837 96.2866 31.3989 97.6661 31.3989C98.5567 31.3989 99.229 31.1806 99.6831 30.744C100.032 30.4472 100.207 29.8709 100.207 29.0153Z" fill="white"/>
<path d="M117.997 33.5468C117.997 35.2057 117.447 36.559 116.347 37.6068C115.264 38.672 113.815 39.2046 111.999 39.2046C110.916 39.2046 109.991 39.0736 109.222 38.8117C108.454 38.5498 107.729 38.087 107.048 37.4234L109.17 35.2756C109.886 35.9741 110.776 36.3233 111.842 36.3233C112.785 36.3233 113.474 36.0439 113.911 35.4851C114.365 34.9438 114.592 34.2802 114.592 33.4944V32.1061C113.771 33.0142 112.689 33.4682 111.344 33.4682C109.982 33.4682 108.899 33.0666 108.096 32.2633C107.502 31.6696 107.118 30.9711 106.943 30.1678C106.786 29.347 106.708 28.2382 106.708 26.8412C106.708 25.4442 106.786 24.344 106.943 23.5408C107.118 22.7375 107.502 22.039 108.096 21.4453C108.899 20.642 109.991 20.2404 111.37 20.2404C112.715 20.2404 113.824 20.7206 114.697 21.681V20.3975H117.997V33.5468ZM114.592 26.8412C114.592 25.741 114.444 24.8767 114.147 24.248C113.85 23.6194 113.247 23.305 112.339 23.305C111.85 23.305 111.449 23.4011 111.134 23.5932C110.838 23.7678 110.611 24.0385 110.453 24.4052C110.314 24.7719 110.218 25.1386 110.165 25.5053C110.13 25.872 110.113 26.3173 110.113 26.8412C110.113 27.3651 110.13 27.8103 110.165 28.1771C110.218 28.5438 110.314 28.9105 110.453 29.2772C110.593 29.6439 110.82 29.9233 111.134 30.1154C111.449 30.3075 111.85 30.4035 112.339 30.4035C112.828 30.4035 113.23 30.3075 113.544 30.1154C113.859 29.9233 114.086 29.6439 114.225 29.2772C114.365 28.9105 114.461 28.5438 114.513 28.1771C114.566 27.8103 114.592 27.3651 114.592 26.8412Z" fill="white"/>
<path d="M133.024 28.2818H124.485C124.485 29.1899 124.747 29.9233 125.271 30.4821C125.795 31.0409 126.528 31.3203 127.471 31.3203C128.17 31.3203 128.737 31.2243 129.174 31.0322C129.628 30.8226 130.09 30.4908 130.562 30.0368L132.631 32.0537C131.898 32.8046 131.138 33.3547 130.352 33.7039C129.584 34.0357 128.615 34.2016 127.445 34.2016C126.572 34.2016 125.777 34.0968 125.061 33.8873C124.363 33.6603 123.708 33.2936 123.097 32.7872C122.486 32.2807 122.005 31.5561 121.656 30.6131C121.307 29.6701 121.132 28.535 121.132 27.2079C121.132 25.0251 121.674 23.3225 122.756 22.1001C123.839 20.8603 125.28 20.2404 127.078 20.2404C128.947 20.2404 130.405 20.8516 131.453 22.0739C132.5 23.2788 133.024 24.8679 133.024 26.8412V28.2818ZM129.671 25.9506C129.654 25.3569 129.549 24.8679 129.357 24.4837C128.938 23.5408 128.178 23.0693 127.078 23.0693C125.978 23.0693 125.218 23.5408 124.799 24.4837C124.607 24.8679 124.502 25.3569 124.485 25.9506H129.671Z" fill="white"/>
<path d="M147.505 34.0445H144.1V25.7934C144.1 24.9378 143.873 24.3091 143.419 23.9075C142.983 23.5058 142.459 23.305 141.848 23.305C141.219 23.305 140.678 23.5058 140.224 23.9075C139.787 24.3091 139.569 24.9378 139.569 25.7934V34.0445H136.164V20.3975H139.49V21.6548C140.381 20.7119 141.516 20.2404 142.895 20.2404C144.24 20.2404 145.314 20.642 146.117 21.4453C147.043 22.3708 147.505 23.663 147.505 25.3219V34.0445Z" fill="white"/>
</g>
<g id="&#208;&#159;&#208;&#152;&#208;&#154;">
<path d="M181.729 36.1114H177.258V17.1968H169.505V36.1114H165.034V13.208H181.729V36.1114Z" fill="white"/>
<path d="M204.426 36.1114H199.954V21.4108L191.044 36.1114H187.055V13.208H191.527V27.8765L200.437 13.208H204.426V36.1114Z" fill="white"/>
<path d="M214.303 36.1114H209.832V13.208H214.303V36.1114ZM227.846 36.1114H222.377L214.335 24.1129L221.734 13.208H227.074L219.386 23.952L227.846 36.1114Z" fill="white"/>
</g>
</g>
</svg>
