<svg width="100" height="99" viewBox="0 0 100 99" fill="none" xmlns="http://www.w3.org/2000/svg">
<g id="air_conditioner_3dxsotgl6gr8 1" clip-path="url(#clip0_92_128)">
<path id="Vector" d="M47.251 63.6597H53.0205V92.5073H47.251V63.6597Z" fill="#8E7C71"/>
<path id="Vector_2" d="M29.9443 46.3496H70.331V57.8887H29.9443V46.3496Z" fill="#8E7C71"/>
<path id="Vector_3" d="M0.902344 40.5788H12.6337V29.0398H87.6375V40.5788H99.3689V5.96167H0.902344V40.5788ZM27.0523 17.5007C28.6456 17.5007 29.937 18.7921 29.937 20.3855C29.937 21.9789 28.6456 23.2702 27.0523 23.2702C25.4589 23.2702 24.1675 21.9789 24.1675 20.3855C24.1675 18.7921 25.4589 17.5007 27.0523 17.5007ZM15.5132 17.5007C17.1066 17.5007 18.398 18.7921 18.398 20.3855C18.398 21.9789 17.1066 23.2702 15.5132 23.2702C13.9198 23.2702 12.6285 21.9789 12.6285 20.3855C12.6285 18.7921 13.9198 17.5007 15.5132 17.5007Z" fill="#8E7C71"/>
<path id="Vector_4" d="M81.868 34.8137H18.4032V46.3528H0.902344V57.8918H24.1728V40.5832H76.0985V57.8918H99.3689V46.3528H81.868V34.8137Z" fill="#8E7C71"/>
<path id="Vector_5" d="M67.4463 80.9682C65.8544 80.9682 64.5615 79.6754 64.5615 78.0835V63.6597H58.792V78.0835C58.792 82.8554 62.6744 86.7378 67.4463 86.7378C72.2182 86.7378 76.1006 82.8554 76.1006 78.0835H70.331C70.331 79.6754 69.0382 80.9682 67.4463 80.9682Z" fill="#8E7C71"/>
<path id="Vector_6" d="M24.1729 78.0835C24.1729 82.8554 28.0553 86.7378 32.8271 86.7378C37.599 86.7378 41.4814 82.8554 41.4814 78.0835V63.6597H35.7119V78.0835C35.7119 79.6754 34.419 80.9682 32.8271 80.9682C31.2353 80.9682 29.9424 79.6754 29.9424 78.0835H24.1729Z" fill="#8E7C71"/>
</g>
<defs>
<clipPath id="clip0_92_128">
<rect width="98.4666" height="98.4666" fill="white" transform="translate(0.902344)"/>
</clipPath>
</defs>
</svg>
