<svg width="81" height="81" viewBox="0 0 81 81" fill="none" xmlns="http://www.w3.org/2000/svg">
<g id="brake_pedal_gqbzfnabnzvm 1">
<path id="Vector" d="M75.4069 4.54834H5.59311C2.5091 4.54834 0 7.05744 0 10.1415V10.162C0 13.246 2.5091 15.7551 5.59311 15.7551H22.477V21.658H13.7605C12.2766 21.658 10.8559 22.294 9.86555 23.3998C8.87361 24.5072 8.399 25.988 8.56195 27.4656C8.56353 27.4862 8.5667 27.5052 8.56828 27.5258L12.2117 54.3713C12.5202 57.0101 14.7477 58.9955 17.4087 58.9955H34.3586C37.2426 58.9955 39.5888 56.6494 39.5888 53.7637V26.8914C39.5888 24.0057 37.2426 21.658 34.3586 21.658H27.2233V15.7553H55.0317V21.658H49.3024C46.3361 21.658 43.9203 24.0722 43.9203 27.0401V71.0696C43.9203 74.0375 46.3361 76.4517 49.3024 76.4517H65.5072C68.4735 76.4517 70.8877 74.0375 70.8877 71.0696V27.0401C70.8877 24.0722 68.4735 21.658 65.5072 21.658H59.7778V15.7553H75.4069C78.4911 15.7553 81 13.2462 81 10.1622V10.1416C81 7.05744 78.4909 4.54834 75.4069 4.54834ZM29.7026 51.4287H22.2117C20.9018 51.4287 19.8387 50.3655 19.8387 49.0556C19.8387 47.7441 20.9018 46.6826 22.2117 46.6826H29.7026C31.0141 46.6826 32.0757 47.7441 32.0757 49.0556C32.0757 50.3655 31.0141 51.4287 29.7026 51.4287ZM29.7026 42.6136H21.2625C19.9526 42.6136 18.8895 41.5505 18.8895 40.2405C18.8895 38.929 19.9526 37.8675 21.2625 37.8675H29.7026C31.0141 37.8675 32.0757 38.929 32.0757 40.2405C32.0757 41.5505 31.0141 42.6136 29.7026 42.6136ZM32.0757 31.4239C32.0757 32.7354 31.0141 33.7969 29.7026 33.7969H19.6805C18.3705 33.7969 17.3074 32.7354 17.3074 31.4239C17.3074 30.114 18.3705 29.0508 19.6805 29.0508H29.7026C31.0141 29.0508 32.0757 30.114 32.0757 31.4239ZM61.1503 68.2283H53.6593C52.3478 68.2283 51.2863 67.1651 51.2863 65.8552C51.2863 64.5437 52.3478 63.4822 53.6593 63.4822H61.1503C62.4602 63.4822 63.5233 64.5437 63.5233 65.8552C63.5233 67.1651 62.4602 68.2283 61.1503 68.2283ZM61.1503 59.8277H53.6593C52.3478 59.8277 51.2863 58.7661 51.2863 57.4546C51.2863 56.1447 52.3478 55.0816 53.6593 55.0816H61.1503C62.4602 55.0816 63.5233 56.1447 63.5233 57.4546C63.5233 58.7661 62.4602 59.8277 61.1503 59.8277ZM61.1503 51.4287H53.6593C52.3478 51.4287 51.2863 50.3655 51.2863 49.0556C51.2863 47.7441 52.3478 46.6826 53.6593 46.6826H61.1503C62.4602 46.6826 63.5233 47.7441 63.5233 49.0556C63.5233 50.3655 62.4602 51.4287 61.1503 51.4287ZM61.1503 42.6136H53.6593C52.3478 42.6136 51.2863 41.5505 51.2863 40.2405C51.2863 38.929 52.3478 37.8675 53.6593 37.8675H61.1503C62.4602 37.8675 63.5233 38.929 63.5233 40.2405C63.5233 41.5505 62.4602 42.6136 61.1503 42.6136ZM63.5233 31.4239C63.5233 32.7354 62.4602 33.7969 61.1503 33.7969H53.6593C52.3478 33.7969 51.2863 32.7354 51.2863 31.4239C51.2863 30.114 52.3478 29.0508 53.6593 29.0508H61.1503C62.4602 29.0508 63.5233 30.114 63.5233 31.4239Z" fill="#444444"/>
</g>
</svg>
