<svg width="92" height="94" viewBox="0 0 92 94" fill="none" xmlns="http://www.w3.org/2000/svg">
<g id="Frame 1306">
<g id="Group">
<path id="Vector" d="M88.0772 34.8841C81.2299 16.2798 63.0583 3.87695 42.9115 3.87695C42.1215 3.87695 41.5947 4.39374 41.5947 5.16892V9.174C20.3945 10.8536 4.06641 28.1659 4.06641 49.0957C4.06641 71.1883 22.3697 89.1465 44.8867 89.1465C67.4037 89.1465 85.707 71.1883 85.707 49.0957C85.707 45.2198 85.1803 41.4731 83.9952 37.7264L87.4188 36.5636C87.8139 36.4344 88.0772 36.176 88.2089 35.9176C88.2089 35.6593 88.2089 35.2717 88.0772 34.8841ZM82.9417 49.0957C82.9417 69.7671 65.8236 86.5626 44.755 86.5626C23.6865 86.5626 6.5683 69.7671 6.5683 49.0957C6.5683 29.4578 21.843 13.4375 41.4631 11.7579V19.2513C41.4631 20.0265 41.9898 20.5433 42.7798 20.5433C55.816 20.5433 67.4037 28.5535 71.8808 40.5687C72.0124 41.0855 72.5392 41.4731 73.0659 41.4731C73.1975 41.4731 73.3292 41.4731 73.4609 41.3439L81.2299 38.6308C82.415 41.9899 82.9417 45.4782 82.9417 49.0957Z" fill="#8E7C71"/>
</g>
<path id="Subtract" fill-rule="evenodd" clip-rule="evenodd" d="M21.9795 49.0932C21.9795 36.8195 32.2504 26.7422 44.7599 26.7422C57.401 26.7422 67.5402 36.8195 67.5402 49.0932C67.5402 61.3668 57.2693 71.4441 44.7599 71.4441C32.2504 71.4441 21.9795 61.3668 21.9795 49.0932ZM36.3315 49.0916C36.3315 44.5698 40.0185 40.8231 44.7589 40.8231C49.4993 40.8231 53.318 44.5698 53.1863 49.0916C53.1863 53.6135 49.3676 57.3602 44.7589 57.3602C40.1501 57.3602 36.3315 53.7427 36.3315 49.0916ZM38.965 49.2208C38.965 52.3216 41.4669 54.9055 44.7589 54.9055C48.0509 54.9055 50.5527 52.3216 50.5527 49.2208C50.5527 46.1201 47.9192 43.5362 44.7589 43.5362C41.5986 43.5362 38.965 46.1201 38.965 49.2208ZM44.7606 36.3071C44.8923 36.3071 45.1556 36.3071 45.2873 36.1779C45.419 36.1779 45.5507 36.0487 45.6824 35.9195C45.9457 35.6611 46.0774 35.4027 46.0774 35.0151C46.0774 34.8859 46.0774 34.6275 45.9457 34.4984C45.9457 34.3692 45.814 34.24 45.6824 34.1108C45.5507 33.9816 45.419 33.8524 45.2873 33.8524C44.7606 33.594 44.2339 33.7232 43.8389 34.1108C43.7072 34.24 43.5755 34.3692 43.5755 34.4984C43.5755 34.563 43.5426 34.6598 43.5097 34.7567C43.4767 34.8536 43.4438 34.9505 43.4438 35.0151C43.4438 35.4027 43.5755 35.6611 43.8389 35.9195C44.1022 36.1779 44.4973 36.3071 44.7606 36.3071ZM34.0934 37.9843C34.4884 37.8551 34.8834 37.8551 35.1468 37.9843C35.2239 38.0221 35.2898 38.0489 35.3443 38.071C35.476 38.1246 35.5418 38.1513 35.5418 38.2427C35.8052 38.5011 35.9369 38.7595 35.9369 39.147C35.9369 39.5346 35.8052 39.793 35.5418 40.0514C35.2785 40.3098 35.0151 40.439 34.6201 40.439C34.2251 40.439 33.9617 40.3098 33.6983 40.0514C33.435 39.793 33.3033 39.5346 33.3033 39.147C33.3033 39.0825 33.3362 38.9856 33.3691 38.8887L33.3691 38.8887C33.4021 38.7918 33.435 38.6949 33.435 38.6303C33.435 38.5011 33.5667 38.3719 33.6983 38.2427L33.6983 38.2427L33.6983 38.2427C33.83 38.1135 33.9617 37.9843 34.0934 37.9843ZM31.4581 48.1924C31.3264 48.0632 31.1947 47.934 31.063 47.934C30.9972 47.934 30.9643 47.9017 30.9313 47.8694C30.8984 47.8371 30.8655 47.8048 30.7997 47.8048H30.2729C30.1413 47.8048 30.1413 47.8048 30.0096 47.934C29.8779 47.934 29.8779 47.934 29.7463 48.0632L29.7462 48.0632C29.6804 48.0632 29.6475 48.0955 29.6146 48.1278C29.5816 48.1601 29.5487 48.1924 29.4829 48.1924C29.3512 48.3216 29.2195 48.4508 29.2195 48.58C29.2195 48.6446 29.1866 48.7415 29.1537 48.8384C29.1208 48.9353 29.0878 49.0322 29.0878 49.0968C29.0878 49.4844 29.2195 49.7428 29.4829 50.0012C29.4829 50.0012 29.6146 50.1304 29.7462 50.1304C29.7462 50.1304 29.8779 50.2596 30.0096 50.2596C30.0754 50.2596 30.1083 50.2919 30.1413 50.3242C30.1742 50.3565 30.2071 50.3888 30.2729 50.3888H30.5363H30.7997C30.9313 50.3888 30.9313 50.3888 31.063 50.2596C31.1947 50.2596 31.1947 50.2596 31.3264 50.1304L31.3264 50.1304L31.4581 50.0012C31.7214 49.7428 31.8531 49.4844 31.8531 49.0968C31.8531 48.9676 31.8531 48.7092 31.7214 48.58C31.6556 48.5154 31.6227 48.4508 31.5897 48.3862C31.5568 48.3216 31.5239 48.257 31.4581 48.1924ZM33.435 58.5295C33.435 58.4003 33.5667 58.2711 33.6983 58.1419C34.2251 57.6251 35.1468 57.6251 35.5418 58.1419C35.8052 58.4003 35.9369 58.6587 35.9369 59.0462C35.9369 59.4338 35.8052 59.6922 35.5418 59.9506C35.4102 60.0798 35.2785 60.209 35.1468 60.209C35.0151 60.3382 34.7518 60.3382 34.6201 60.3382C34.4884 60.3382 34.2251 60.3382 34.0934 60.209C33.9617 60.209 33.83 60.0798 33.6983 59.9506C33.435 59.6922 33.3033 59.4338 33.3033 59.0462C33.3033 58.9816 33.3362 58.8848 33.3691 58.7879C33.4021 58.691 33.435 58.5941 33.435 58.5295ZM45.2873 62.0141C44.7606 61.7558 44.2339 61.8849 43.8389 62.2725C43.5755 62.5309 43.4438 62.7893 43.4438 63.1769C43.4438 63.5645 43.5755 63.8229 43.8389 64.0813C44.1022 64.3397 44.3656 64.4689 44.7606 64.4689C44.8923 64.4689 45.1556 64.4689 45.2873 64.3397C45.419 64.3397 45.5507 64.2105 45.6824 64.0813C45.9457 63.8229 46.0774 63.4353 46.0774 63.1769C46.0774 62.7893 45.9457 62.5309 45.6824 62.2725C45.6824 62.1433 45.419 62.0141 45.2873 62.0141ZM53.5783 59.043C53.5783 58.7846 53.71 58.397 53.9734 58.1387C54.5001 57.6219 55.5535 57.5564 55.8169 58.2023C56.0802 58.4607 56.0802 58.7846 56.0802 59.1722V59.4306V59.689C56.0802 59.8182 55.9486 59.9474 55.8169 60.0766L55.8169 60.0766C55.5535 60.335 55.2902 60.4642 54.8951 60.4642C54.5001 60.4642 54.2367 60.335 53.9734 60.0766C53.9734 60.012 53.9405 59.9797 53.9075 59.9474C53.8746 59.9151 53.8417 59.8828 53.8417 59.8182C53.71 59.689 53.71 59.689 53.71 59.5598C53.6341 59.4853 53.6019 59.4538 53.5883 59.4156C53.5783 59.3876 53.5783 59.3561 53.5783 59.3014V59.043ZM58.5845 47.934C58.4528 47.934 58.4528 47.934 58.3212 48.0632C58.3212 48.0632 58.1895 48.1924 58.0578 48.1924C57.7944 48.4508 57.6628 48.8384 57.6628 49.0968C57.6628 49.4844 57.7944 49.7428 58.0578 50.0012C58.3212 50.2596 58.7162 50.3888 58.9795 50.3888C59.2429 50.3888 59.6379 50.2596 59.9013 50.0012C60.1647 49.7428 60.2963 49.3552 60.2963 49.0968C60.2963 48.8384 60.1647 48.4508 59.9013 48.1924C59.6379 47.934 59.1112 47.8048 58.7162 47.8048C58.8479 47.8048 58.7162 47.934 58.5845 47.934ZM53.9734 38.241C54.5001 37.7242 55.2902 37.7242 55.8169 38.241C55.9486 38.3702 56.0802 38.4994 56.0802 38.6286C56.2119 38.7577 56.2119 39.0161 56.2119 39.1453C56.2119 39.4037 56.0802 39.7913 55.8169 40.0497C55.5535 40.3081 55.2902 40.4373 54.8951 40.4373C54.5001 40.4373 54.2367 40.3081 53.9734 40.0497C53.71 39.7913 53.5783 39.5329 53.5783 39.1453C53.5783 39.0161 53.5783 38.7577 53.71 38.6286C53.71 38.4994 53.8417 38.3702 53.9734 38.241Z" fill="#8E7C71"/>
</g>
</svg>
