<svg width="27" height="26" viewBox="0 0 27 26" fill="none" xmlns="http://www.w3.org/2000/svg">
<g clip-path="url(#clip0_92_175)">
<path d="M14.3154 18.3118H17.1769V21.5718H14.3154V18.3118Z" fill="white"/>
<path d="M9.97754 13.5771H12.839V16.8372H9.97754V13.5771Z" fill="white"/>
<path d="M9.97754 18.3118H12.839V21.5718H9.97754V18.3118Z" fill="white"/>
<path d="M26.1869 7.68576V2.63745H22.9384V0.76709H21.4618V2.63745H19.493V0.76709H18.0164V2.63745H16.0476V0.76709H14.571V2.63745H12.6022V0.76709H11.1256V2.63745H9.15684V0.76709H7.68024V2.63745H5.71144V0.76709H4.23484V2.63745H0.986328V7.68576H26.1869Z" fill="white"/>
<path d="M5.56348 18.3118H8.5011V21.5718H5.56348V18.3118Z" fill="white"/>
<path d="M14.3154 13.5771H17.1769V16.8372H14.3154V13.5771Z" fill="white"/>
<path d="M18.6533 18.3118H21.6088V21.5718H18.6533V18.3118Z" fill="white"/>
<path d="M5.56348 13.5771H8.5011V16.8372H5.56348V13.5771Z" fill="white"/>
<path d="M18.6533 13.5771H21.6088V16.8372H18.6533V13.5771Z" fill="white"/>
<path d="M0.986328 9.15918V25.9645H26.1869V9.15918H0.986328ZM23.0861 23.0475H4.08719V12.0976H23.0861V23.0475Z" fill="white"/>
</g>
<defs>
<clipPath id="clip0_92_175">
<rect width="25.2006" height="25.2006" fill="white" transform="translate(0.986328 0.767334)"/>
</clipPath>
</defs>
</svg>
