<svg width="118" height="118" viewBox="0 0 118 118" fill="none" xmlns="http://www.w3.org/2000/svg">
<g id="car_top_view_rnakhx78a5ya 1" clip-path="url(#clip0_92_332)">
<g id="Group">
<path id="Vector" d="M-1.90846e-06 44.2522L-6.18861e-07 73.7547C-2.77023e-07 81.575 8.69846 87.9126 16.5188 87.9126L103.84 87.9126C111.657 87.9126 118 81.575 118 73.7547L118 44.2522C118 36.4344 111.66 30.0918 103.84 30.0918L16.5188 30.0918C8.69846 30.0968 -2.25018e-06 36.4344 -1.90846e-06 44.2522ZM35.5967 32.5731L64.8634 32.5731L65.744 39.42L53.6861 39.42L35.5967 32.5731ZM27.0287 36.1659C36.8135 38.715 48.3797 41.7332 48.3797 41.7332L48.3797 76.2762L27.0287 81.851C27.0287 81.851 19.4567 59.5617 27.0287 36.1659ZM54.4764 78.5091L65.7465 78.5091L64.8709 85.3585L36.3845 85.3585L54.4764 78.5091ZM95.1838 85.3585L69.1938 85.3585L70.0543 78.5091L90.6175 78.5091L95.1838 85.3585ZM102.57 81.4521L94.2003 75.8873L94.2003 41.3368L102.57 35.7695L102.57 81.4521ZM89.8322 39.42L70.0819 39.42L69.1913 32.5731L94.401 32.5731L89.8322 39.42Z" fill="#444444"/>
</g>
</g>
<defs>
<clipPath id="clip0_92_332">
<rect width="118" height="118" fill="white" transform="translate(0 118) rotate(-90)"/>
</clipPath>
</defs>
</svg>
