<svg width="98" height="96" viewBox="0 0 98 96" fill="none" xmlns="http://www.w3.org/2000/svg">
<g id="car_service_lkq8oiiepaeg 1">
<path id="Vector" d="M89.1797 42.9397H9.13872C8.78043 42.9495 8.44026 43.0968 8.19096 43.3502C7.94166 43.6036 7.80302 43.9429 7.8047 44.2955V48.983C7.81223 49.234 7.88659 49.4787 8.02036 49.6926C8.15414 49.9065 8.34263 50.082 8.567 50.2018L45.4699 64.6393L8.567 79.076C8.34263 79.1957 8.15414 79.3713 8.02036 79.5852C7.88659 79.7991 7.81223 80.0437 7.8047 80.2948V88.9198C7.80547 89.0899 7.84082 89.2582 7.90868 89.4148C7.97654 89.5713 8.07553 89.7129 8.19982 89.8312C8.32412 89.9495 8.47122 90.0422 8.63246 90.1038C8.7937 90.1653 8.96583 90.1946 9.13872 90.1897H89.1797C89.3525 90.1946 89.5246 90.1654 89.6858 90.1038C89.847 90.0423 89.994 89.9497 90.1183 89.8315C90.2426 89.7132 90.3416 89.5717 90.4095 89.4153C90.4774 89.2588 90.5128 89.0906 90.5137 88.9205V80.2955C90.5062 80.0445 90.4318 79.7998 90.298 79.5859C90.1643 79.3721 89.9758 79.1965 89.7514 79.0768L52.8485 64.6393L89.7514 50.2027C89.9758 50.083 90.1643 49.9074 90.298 49.6935C90.4318 49.4796 90.5062 49.235 90.5137 48.9839V44.2964C90.5156 43.9436 90.3771 43.6041 90.1278 43.3505C89.8785 43.097 89.5382 42.9495 89.1797 42.9397ZM82.214 78.9397H16.1044L49.1592 66.0084L82.214 78.9397ZM49.1592 63.1835L16.1044 50.2522H82.2144L49.1592 63.1835Z" fill="#444444"/>
<path id="Vector_2" d="M49.5418 8.5C47.9168 8.64862 46.3069 8.92717 44.7279 9.33288C43.2072 9.73042 41.7162 10.2311 40.2658 10.8312C36.6699 12.3439 33.2961 14.3236 30.2344 16.7176L49.5418 16.7703V8.5Z" fill="#444444"/>
<path id="Vector_3" d="M34.6498 32.0652H49.5418V19.3959L26.6729 19.334C22.9021 19.3409 19.1593 19.971 15.6006 21.1979C14.6551 21.5255 13.838 22.1368 13.2644 22.9456C12.6859 23.7556 12.3769 24.7222 12.3799 25.7122V32.0652H19.6015C19.9626 30.3648 20.9077 28.8385 22.2779 27.7429C23.6482 26.6473 25.36 26.0493 27.1256 26.0493C28.8913 26.0493 30.6031 26.6473 31.9734 27.7429C33.3436 28.8385 34.2887 30.3648 34.6498 32.0652ZM41.7854 20.4402H45.7113C46.0651 20.4402 46.4044 20.5785 46.6546 20.8247C46.9047 21.0708 47.0453 21.4046 47.0453 21.7527C47.0453 22.1008 46.9047 22.4347 46.6546 22.6808C46.4044 22.927 46.0651 23.0652 45.7113 23.0652H41.7854C41.4316 23.0652 41.0923 22.927 40.8421 22.6808C40.592 22.4347 40.4514 22.1008 40.4514 21.7527C40.4514 21.4046 40.592 21.0708 40.8421 20.8247C41.0923 20.5785 41.4316 20.4402 41.7854 20.4402Z" fill="#444444"/>
<path id="Vector_4" d="M66.9785 33.7155C66.9785 34.6921 67.2729 35.6467 67.8243 36.4587C68.3758 37.2706 69.1596 37.9035 70.0766 38.2772C70.9936 38.6509 72.0027 38.7486 72.9761 38.558C73.9496 38.3675 74.8438 37.8972 75.5456 37.2066C76.2474 36.516 76.7253 35.6362 76.9189 34.6784C77.1125 33.7206 77.013 32.7278 76.6331 31.8256C76.2532 30.9235 75.6099 30.1524 74.7845 29.6099C73.9592 29.0674 72.9889 28.778 71.9963 28.7781C70.6659 28.7797 69.3905 29.3005 68.4498 30.2261C67.5092 31.1517 66.98 32.4066 66.9785 33.7155Z" fill="#444444"/>
<path id="Vector_5" d="M52.209 32.0651H64.4903C64.8631 30.4192 65.7844 28.9432 67.1078 27.8717C68.4312 26.8002 70.0807 26.1948 71.7941 26.1517C73.5074 26.1086 75.1862 26.6303 76.5636 27.6338C77.9409 28.6374 78.9377 30.0651 79.3955 31.6901H79.7631C80.8729 31.6993 81.9573 31.3635 82.8616 30.7305L82.8807 30.7138C83.8272 30.0369 84.5978 29.1495 85.1295 28.124C85.6613 27.0984 85.9392 25.9637 85.9405 24.8125V24.5651H83.4111C83.0573 24.5651 82.7179 24.4269 82.4678 24.1807C82.2176 23.9346 82.077 23.6007 82.077 23.2526C82.077 22.9045 82.2176 22.5707 82.4678 22.3246C82.7179 22.0784 83.0573 21.9401 83.4111 21.9401H85.9405V19.4951L52.209 19.4031V32.0651Z" fill="#444444"/>
<path id="Vector_6" d="M85.2968 16.5212L76.1811 8.85456C75.8449 8.57928 75.4193 8.43214 74.982 8.44H69.7412V16.8259L85.5804 16.8691C85.5024 16.741 85.407 16.624 85.2968 16.5212Z" fill="#444444"/>
<path id="Vector_7" d="M22.1045 33.6381C22.1045 34.6146 22.3988 35.5693 22.9503 36.3813C23.5017 37.1932 24.2855 37.8261 25.2025 38.1998C26.1196 38.5736 27.1286 38.6713 28.1021 38.4808C29.0756 38.2903 29.9699 37.82 30.6717 37.1295C31.3736 36.439 31.8516 35.5592 32.0452 34.6013C32.2388 33.6435 32.1395 32.6508 31.7596 31.7485C31.3798 30.8463 30.7365 30.0751 29.9112 29.5326C29.0859 28.99 28.1156 28.7004 27.1231 28.7004C25.7925 28.7018 24.5168 29.2225 23.576 30.1482C22.6351 31.0739 22.1059 32.329 22.1045 33.6381Z" fill="#444444"/>
<path id="Vector_8" d="M52.209 16.7776L67.0737 16.8183V8.4397H52.209V16.7776Z" fill="#444444"/>
</g>
</svg>
