<svg width="86" height="87" viewBox="0 0 86 87" fill="none" xmlns="http://www.w3.org/2000/svg">
<g id="diagnostic_xcoof6ats34e 1" clip-path="url(#clip0_92_136)">
<path id="Vector" d="M30.7518 76.0659V81.0531H20.7773V86.0404H65.6623V81.0531H55.6879V76.0659H30.7518Z" fill="#444444"/>
<path id="Vector_2" d="M37.5495 17.7678L29.2907 26.0266H20.7773V36.001H26.2237C27.2568 33.1048 29.9985 31.0138 33.2454 31.0138C36.4923 31.0138 39.2339 33.1048 40.2671 36.001H51.1598C52.1929 33.1048 54.9346 31.0138 58.1815 31.0138C61.4284 31.0138 64.17 33.1048 65.2032 36.001H70.6495V26.0266C69.7501 26.0266 40.395 26.0266 41.6782 26.0266L37.5495 17.7678Z" fill="#444444"/>
<path id="Vector_3" d="M57.1497 21.0404L52.1625 16.0532H42.2686L44.7622 21.0404H57.1497Z" fill="#444444"/>
<path id="Vector_4" d="M58.1827 36C56.8063 36 55.6885 37.1178 55.6885 38.4942C55.6885 39.8705 56.8063 40.9884 58.1827 40.9884C59.559 40.9884 60.6768 39.8705 60.6768 38.4942C60.6768 37.1178 59.559 36 58.1827 36Z" fill="#444444"/>
<path id="Vector_5" d="M33.2461 36C31.8698 36 30.752 37.1178 30.752 38.4942C30.752 39.8705 31.8698 40.9884 33.2461 40.9884C34.6225 40.9884 35.7403 39.8705 35.7403 38.4942C35.7403 37.1178 34.6225 36 33.2461 36Z" fill="#444444"/>
<path id="Vector_6" d="M85.7753 0.923828H0.660156V50.9622H85.7753V0.923828ZM75.6346 40.9878H65.2011C64.1679 43.884 61.4263 45.975 58.1794 45.975C54.9325 45.975 52.1908 43.884 51.1577 40.9878H40.265C39.2319 43.884 36.4902 45.975 33.2433 45.975C29.9964 45.975 27.2547 43.884 26.2216 40.9878H15.788C15.788 39.3903 15.788 15.4387 15.788 16.0517H10.8008V11.0645H24.8105L28.9392 19.3233L37.198 11.0645H54.2247L64.1991 21.0389H75.6346V40.9878Z" fill="#444444"/>
<path id="Vector_7" d="M85.7753 55.949H45.7113V60.9362H40.7241V55.949H0.660156V71.0769H85.7753V55.949Z" fill="#444444"/>
<path id="Vector_8" d="M21.7295 16.0532H20.7773V21.0416H24.2237L21.7295 16.0532Z" fill="#444444"/>
</g>
<defs>
<clipPath id="clip0_92_136">
<rect width="85.1152" height="85.1152" fill="white" transform="translate(0.660156 0.924805)"/>
</clipPath>
</defs>
</svg>
