<svg width="90" height="81" viewBox="0 0 90 81" fill="none" xmlns="http://www.w3.org/2000/svg">
<g id="electricity_ftkhh1nvcsee 1" clip-path="url(#clip0_92_342)">
<path id="Shape" d="M89.0577 70.4294L50.9737 3.50786C49.7599 1.34102 47.476 0 44.9996 0C42.5232 0 40.2393 1.34102 39.0255 3.50786L0.941504 70.4294C-0.307662 72.5932 -0.319695 75.2598 0.909892 77.4348C2.13948 79.6098 4.42613 80.9669 6.91719 80.9999H83.082C85.5731 80.9669 87.8597 79.6098 89.0893 77.4348C90.3189 75.2598 90.3069 72.5932 89.0577 70.4294ZM51.2065 60.7499L34.1375 74.7692L35.6893 52.9615L40.3444 56.0769L44.9996 45.173H31.0341L43.4479 12.4615L52.7582 18.6922L43.4479 37.3846H58.9651L46.5513 59.1922L51.2065 60.7499Z" fill="#444444"/>
</g>
<defs>
<clipPath id="clip0_92_342">
<rect width="90" height="81" fill="white"/>
</clipPath>
</defs>
</svg>
