<svg width="37" height="38" viewBox="0 0 37 38" fill="none" xmlns="http://www.w3.org/2000/svg">
<path d="M31.1309 9.90991L20.4649 20.9258C19.9411 21.4632 19.2326 21.7648 18.4942 21.7648C17.7557 21.7648 17.0473 21.4632 16.5235 20.9258L5.85744 9.90991C5.74861 10.141 5.69153 10.3943 5.69043 10.6512V26.7412C5.69173 27.198 5.86809 27.6357 6.18101 27.9587C6.49392 28.2817 6.91796 28.4638 7.36048 28.4651H29.6279C30.0704 28.4638 30.4944 28.2817 30.8074 27.9587C31.1203 27.6357 31.2966 27.198 31.2979 26.7412V10.6512C31.2968 10.3943 31.2398 10.141 31.1309 9.90991Z" fill="white"/>
<path d="M19.6746 20.1105L30.3462 9.10037C30.1224 8.98804 29.877 8.92912 29.6281 8.92798H7.3607C7.11183 8.92912 6.8664 8.98804 6.64258 9.10037L17.3142 20.1105C17.6273 20.4334 18.0518 20.6148 18.4944 20.6148C18.937 20.6148 19.3615 20.4334 19.6746 20.1105Z" fill="white"/>
</svg>
