<svg width="80" height="80" viewBox="0 0 80 80" fill="none" xmlns="http://www.w3.org/2000/svg">
<g id="filter_j4d4q9y9ecuf 1" clip-path="url(#clip0_92_269)">
<g id="Group">
<g id="Group_2">
<path id="Vector" d="M11.0338 5.51782H8.2752V11.035C8.2752 12.5561 7.03754 13.7936 5.5166 13.7936V22.0695H11.0338V5.51782Z" fill="#444444"/>
<path id="Vector_2" d="M5.5166 30.8585C7.18988 30.129 9.04473 29.5138 11.0338 29.0201V24.8274H5.5166V30.8585Z" fill="#444444"/>
<path id="Vector_3" d="M40.4437 33.4583C35.927 31.4507 29.8911 30.3452 23.4483 30.3452C17.0055 30.3452 10.9695 31.4507 6.45281 33.4583C2.35188 35.2807 0 37.6654 0 40.0004C0 42.3354 2.35188 44.7201 6.45281 46.5424C10.9695 48.5501 17.0055 49.6555 23.4483 49.6555C29.8911 49.6555 35.927 48.5501 40.4437 46.5424C44.5447 44.7201 46.8966 42.3354 46.8966 40.0004C46.8966 37.6654 44.5447 35.2807 40.4437 33.4583ZM37.777 43.1708C33.8787 44.6841 28.79 45.5176 23.4483 45.5176C18.1066 45.5176 13.0178 44.6841 9.11953 43.1708C5.71766 41.8502 4.45547 40.4794 4.17828 40.0004C4.45531 39.5215 5.71766 38.1505 9.11953 36.8299C13.0178 35.3166 18.1066 34.4832 23.4483 34.4832C28.79 34.4832 33.8787 35.3166 37.777 36.8299C41.1789 38.1505 42.4411 39.5213 42.7183 40.0004C42.4412 40.4793 41.1791 41.8502 37.777 43.1708Z" fill="#444444"/>
<path id="Vector_4" d="M13.793 28.4275C15.5611 28.1058 17.4098 27.8749 19.3102 27.7372V24.8274H13.793V28.4275Z" fill="#444444"/>
<path id="Vector_5" d="M22.0684 27.6033C22.5263 27.5924 22.986 27.586 23.4477 27.586C24.8473 27.586 26.229 27.6388 27.5857 27.7372V24.8274H22.0685V27.6033H22.0684Z" fill="#444444"/>
<path id="Vector_6" d="M41.3789 49.1409V70.9278C44.8991 69.1709 46.8961 66.9781 46.8961 64.8271V45.6704C45.5667 46.9326 43.7772 48.0788 41.5637 49.0624C41.5033 49.0893 41.4397 49.1142 41.3789 49.1409Z" fill="#444444"/>
<path id="Vector_7" d="M22.0684 5.51782H27.5855V22.0695H22.0684V5.51782Z" fill="#444444"/>
<path id="Vector_8" d="M13.793 5.51782H19.3102V22.0695H13.793V5.51782Z" fill="#444444"/>
<path id="Vector_9" d="M23.4491 77.2415C16.6287 77.2415 10.1951 76.0515 5.3332 73.8907C3.12258 72.9083 1.33461 71.7638 0.00585938 70.5033C0.109453 72.7874 2.44539 75.1057 6.45367 76.8871C10.9704 78.8946 17.0062 80 23.4491 80C29.8921 80 35.9279 78.8946 40.4446 76.8869C44.4529 75.1055 46.7887 72.7872 46.8924 70.5032C45.5637 71.7636 43.7757 72.908 41.5651 73.8905C36.7032 76.0515 30.2696 77.2415 23.4491 77.2415Z" fill="#444444"/>
<path id="Vector_10" d="M8.27539 50.1907V72.1008C9.96492 72.7129 11.8205 73.2119 13.7926 73.5938V51.5724C11.8435 51.218 9.99164 50.7555 8.27539 50.1907Z" fill="#444444"/>
<path id="Vector_11" d="M5.51719 70.9278V49.1409C5.45625 49.1143 5.39266 49.0895 5.33234 49.0626C3.11891 48.0788 1.32938 46.9328 0 45.6704V64.8271C0 66.9781 1.99703 69.1707 5.51719 70.9278Z" fill="#444444"/>
<path id="Vector_12" d="M16.5518 51.9912V74.0417C18.3286 74.275 20.1774 74.4172 22.0689 74.4639V52.3962C20.1846 52.3517 18.3382 52.2136 16.5518 51.9912Z" fill="#444444"/>
<path id="Vector_13" d="M33.1035 51.5724V73.5938C35.0755 73.2119 36.9313 72.7127 38.6207 72.1008V50.1907C36.9045 50.7555 35.0524 51.218 33.1035 51.5724Z" fill="#444444"/>
<path id="Vector_14" d="M24.8271 52.3962V74.4639C26.7187 74.4172 28.5675 74.275 30.3443 74.0417V51.9912C28.5579 52.2136 26.7115 52.3517 24.8271 52.3962Z" fill="#444444"/>
<path id="Vector_15" d="M55.1729 5.51782H60.69V22.0695H55.1729V5.51782Z" fill="#444444"/>
<path id="Vector_16" d="M63.4482 24.8274H68.9654V41.3791H63.4482V24.8274Z" fill="#444444"/>
<path id="Vector_17" d="M63.4482 5.51782H68.9654V22.0695H63.4482V5.51782Z" fill="#444444"/>
<path id="Vector_18" d="M77.2415 44.137H49.6553V46.8956H78.6207C79.3812 46.8956 80.0001 46.2769 80.0001 45.5162V35.8611H77.2415V44.137Z" fill="#444444"/>
<path id="Vector_19" d="M55.1729 24.8274H60.69V41.3791H55.1729V24.8274Z" fill="#444444"/>
<path id="Vector_20" d="M78.6208 0H4.13816C3.3777 0 2.75879 0.61875 2.75879 1.37938V11.0345H5.51738V2.75859H77.2414V11.0345H80.0002V1.37938C80.0002 0.61875 79.3814 0 78.6208 0Z" fill="#444444"/>
<path id="Vector_21" d="M30.3447 28.0085C32.2663 28.2479 34.1157 28.5866 35.8619 29.0202V24.8274H30.3447V28.0085Z" fill="#444444"/>
<path id="Vector_22" d="M71.7246 41.3791H74.4832V35.8619C74.4832 34.3408 75.7209 33.1033 77.2418 33.1033V24.8274H71.7246V41.3791Z" fill="#444444"/>
<path id="Vector_23" d="M71.7246 5.51782V22.0695H77.2418V13.7938C75.7207 13.7938 74.4832 12.5561 74.4832 11.0352V5.51782H71.7246Z" fill="#444444"/>
<path id="Vector_24" d="M38.6211 29.8093C39.6538 30.1491 40.638 30.5249 41.5645 30.9369C42.4992 31.3522 43.3572 31.7969 44.1383 32.2668V24.8274H38.6211V29.8093Z" fill="#444444"/>
<path id="Vector_25" d="M30.3447 5.51782H35.8619V22.0695H30.3447V5.51782Z" fill="#444444"/>
<path id="Vector_26" d="M38.6211 5.51782H44.1383V22.0695H38.6211V5.51782Z" fill="#444444"/>
<path id="Vector_27" d="M46.8965 5.51782H52.4137V22.0695H46.8965V5.51782Z" fill="#444444"/>
<path id="Vector_28" d="M49.6551 41.3791H52.4137V24.8274H46.8965V34.329C48.7005 36.0422 49.6551 37.97 49.6551 39.9999V41.3791Z" fill="#444444"/>
</g>
</g>
</g>
<defs>
<clipPath id="clip0_92_269">
<rect width="80" height="80" fill="white"/>
</clipPath>
</defs>
</svg>
