<svg width="88" height="88" viewBox="0 0 88 88" fill="none" xmlns="http://www.w3.org/2000/svg">
<g id="painting_ux8qmeyx413p 1" clip-path="url(#clip0_92_319)">
<g id="Group">
<g id="Group_2">
<path id="Vector" d="M85.4214 82.8437C80.5875 82.8437 77.8363 80.6417 76.7499 77.3822L75.0746 72.3594H80.0933C81.772 72.3594 83.0013 70.7779 82.5934 69.1568L80.489 60.7393C78.8008 61.5524 76.9327 62.0469 74.9371 62.0469H60.0342L61.1476 66.5032C62.0197 69.9947 64.7645 72.3594 69.6408 72.3594L71.858 79.0111C73.5863 84.1988 78.2202 88 85.4214 88C86.8465 88 87.9996 86.8468 87.9996 85.4218C87.9996 83.9968 86.8465 82.8437 85.4214 82.8437Z" fill="#444444"/>
</g>
</g>
<g id="Group_3">
<g id="Group_4">
<path id="Vector_2" d="M12.8906 41.4219H2.57812C1.15311 41.4219 0 42.575 0 44C0 45.425 1.15311 46.5781 2.57812 46.5781H12.8906C14.3156 46.5781 15.4687 45.425 15.4687 44C15.4687 42.575 14.3156 41.4219 12.8906 41.4219Z" fill="#444444"/>
</g>
</g>
<g id="Group_5">
<g id="Group_6">
<path id="Vector_3" d="M74.9374 0.000244141C64.416 0.000244141 55.792 0.000244141 44 0.000244141C42.575 0.000244141 41.4219 1.15335 41.4219 2.57836C41.4219 4.00338 42.575 5.15648 44 5.15648H46.5781V10.3127H72.3593V5.15648H74.9374C76.3624 5.15648 77.5156 4.00338 77.5156 2.57836C77.5156 1.15335 76.3624 0.000244141 74.9374 0.000244141Z" fill="#444444"/>
</g>
</g>
<g id="Group_7">
<g id="Group_8">
<path id="Vector_4" d="M69.7814 31.1096H62.047V25.4989C67.0855 24.4678 71.0713 20.5094 72.0986 15.469H46.8392C47.394 18.1915 48.8357 20.5775 50.814 22.3839L45.0453 31.1096H44.0002C40.6435 31.1096 37.8085 33.2714 36.7407 36.2658H33.6877C31.0183 36.2658 28.661 37.626 27.2707 39.6887L4.18969 21.3609C3.0744 20.4721 1.45551 20.6584 0.564167 21.7637C-0.324597 22.8766 -0.14327 24.4979 0.967041 25.3893L24.4049 44L0.967041 62.6108C-0.14327 63.5021 -0.324597 65.1234 0.564167 66.2363C1.46135 67.3497 3.08161 67.5245 4.18969 66.6392L27.2707 48.3117C28.6612 50.3743 31.0183 51.7346 33.6877 51.7346H36.7407C37.8085 54.729 40.6435 56.8908 44.0002 56.8908H74.9376C79.2025 56.8908 82.672 53.4213 82.672 49.1564V44.0002C82.672 36.8927 76.8889 31.1096 69.7814 31.1096ZM36.2658 46.5781H33.6877C32.2652 46.5781 31.1096 45.4225 31.1096 44C31.1096 42.5776 32.2652 41.4219 33.6877 41.4219H36.2658V46.5781ZM55.2366 25.0501C55.7722 25.2373 56.3258 25.3827 56.8908 25.4986V31.1092H51.2662L55.2366 25.0501ZM62.047 51.7344H51.7345V36.2657H62.047V51.7344Z" fill="#444444"/>
</g>
</g>
</g>
<defs>
<clipPath id="clip0_92_319">
<rect width="88" height="88" fill="white"/>
</clipPath>
</defs>
</svg>
