<svg width="16" height="16" viewBox="0 0 16 16" fill="none" xmlns="http://www.w3.org/2000/svg">
<g id="Frame 1315">
<g id="Group">
<g id="Group_2">
<path id="Vector" d="M11.8638 1H4.66744C4.29835 1 4 1.29885 4 1.66744V14.799C4 15.1679 4.29861 15.4667 4.66744 15.4667H11.8638C12.2324 15.4667 12.5312 15.1679 12.5312 14.799V1.66744C12.5315 1.29861 12.2324 1 11.8638 1ZM7.5282 1.7877H9.00254C9.07961 1.7877 9.14175 1.84986 9.14175 1.9269C9.14175 2.00393 9.07961 2.0661 9.00254 2.0661H7.5282C7.45167 2.0661 7.389 2.00393 7.389 1.9269C7.389 1.84986 7.45167 1.7877 7.5282 1.7877ZM9.15591 14.2794H7.37511C7.22909 14.2794 7.1106 14.1611 7.1106 14.0151C7.1106 13.8691 7.22909 13.7509 7.37511 13.7509H9.15588C9.30187 13.7509 9.41985 13.8691 9.41985 14.0151C9.41988 14.1612 9.30216 14.2794 9.15591 14.2794ZM11.6971 12.7217H4.83419V3.26254H11.6971V12.7217Z" fill="white"/>
</g>
</g>
</g>
</svg>
