<svg width="96" height="96" viewBox="0 0 96 96" fill="none" xmlns="http://www.w3.org/2000/svg">
<g id="mdi:piston">
<path id="Vector" d="M52.106 64.9903C54.0888 65.6645 55.6751 66.7749 56.9838 68.2422H60.0374V84.1051H56.9045C55.6355 85.4931 54.0888 86.6035 52.106 87.2777C47.5454 88.9433 42.5089 87.5553 39.3363 84.1051H36.243V68.2422H39.2966C40.6053 66.7749 42.1916 65.6645 44.1745 64.9903V48.4135H52.106V64.9903ZM48.1402 80.1394C49.192 80.1394 50.2007 79.7216 50.9444 78.9779C51.6881 78.2341 52.106 77.2254 52.106 76.1737C52.106 75.1219 51.6881 74.1132 50.9444 73.3695C50.2007 72.6257 49.192 72.2079 48.1402 72.2079C47.0884 72.2079 46.0797 72.6257 45.336 73.3695C44.5923 74.1132 44.1745 75.1219 44.1745 76.1737C44.1745 77.2254 44.5923 78.2341 45.336 78.9779C46.0797 79.7216 47.0884 80.1394 48.1402 80.1394ZM67.9689 16.6876H60.0374V20.6533H67.9689V44.4478H28.3115V20.6533H36.243V16.6876H28.3115V8.7561H67.9689V16.6876ZM48.1402 36.5163C49.192 36.5163 50.2007 36.0985 50.9444 35.3547C51.6881 34.611 52.106 33.6023 52.106 32.5505C52.106 31.4988 51.6881 30.4901 50.9444 29.7463C50.2007 29.0026 49.192 28.5848 48.1402 28.5848C47.0884 28.5848 46.0797 29.0026 45.336 29.7463C44.5923 30.4901 44.1745 31.4988 44.1745 32.5505C44.1745 33.6023 44.5923 34.611 45.336 35.3547C46.0797 36.0985 47.0884 36.5163 48.1402 36.5163Z" fill="#444444"/>
</g>
</svg>
