<svg width="78" height="78" viewBox="0 0 78 78" fill="none" xmlns="http://www.w3.org/2000/svg">
<path d="M70.6875 17.0625H37.7812C37.7802 16.0931 37.3946 15.1638 36.7092 14.4783C36.0237 13.7929 35.0944 13.4073 34.125 13.4062H31.6875C30.7181 13.4073 29.7888 13.7929 29.1033 14.4783C28.4179 15.1638 28.0323 16.0931 28.0312 17.0625H25.5938C25.5927 16.0931 25.2071 15.1638 24.5217 14.4783C23.8362 13.7929 22.9069 13.4073 21.9375 13.4062H12.1875C11.2181 13.4073 10.2888 13.7929 9.60331 14.4783C8.91786 15.1638 8.53231 16.0931 8.53125 17.0625H7.3125C6.01997 17.0638 4.78074 17.5778 3.86678 18.4918C2.95282 19.4057 2.43879 20.645 2.4375 21.9375V65.8125C2.43879 67.105 2.95282 68.3443 3.86678 69.2582C4.78074 70.1722 6.01997 70.6862 7.3125 70.6875H70.6875C71.98 70.6862 73.2193 70.1722 74.1332 69.2582C75.0472 68.3443 75.5612 67.105 75.5625 65.8125V21.9375C75.5612 20.645 75.0472 19.4057 74.1332 18.4918C73.2193 17.5778 71.98 17.0638 70.6875 17.0625ZM31.6875 15.8438H34.125C34.4482 15.844 34.758 15.9724 34.9865 16.201C35.2151 16.4295 35.3435 16.7393 35.3438 17.0625H30.4688C30.469 16.7393 30.5974 16.4295 30.826 16.201C31.0545 15.9724 31.3643 15.844 31.6875 15.8438ZM12.1875 15.8438H21.9375C22.2607 15.844 22.5705 15.9724 22.799 16.201C23.0276 16.4295 23.156 16.7393 23.1562 17.0625H10.9688C10.969 16.7393 11.0974 16.4295 11.326 16.201C11.5545 15.9724 11.8643 15.844 12.1875 15.8438ZM73.125 65.8125C73.1242 66.4587 72.8671 67.0782 72.4101 67.5351C71.9532 67.9921 71.3337 68.2492 70.6875 68.25H7.3125C6.66629 68.2492 6.04679 67.9921 5.58985 67.5351C5.13292 67.0782 4.87584 66.4587 4.875 65.8125V21.9375C4.87584 21.2913 5.13292 20.6718 5.58985 20.2149C6.04679 19.7579 6.66629 19.5008 7.3125 19.5H70.6875C71.3337 19.5008 71.9532 19.7579 72.4101 20.2149C72.8671 20.6718 73.1242 21.2913 73.125 21.9375V65.8125Z" fill="#8E7C71"/>
<path d="M7.31213 47.3066V64.5938C7.31204 64.7538 7.3435 64.9123 7.40471 65.0603C7.46593 65.2082 7.5557 65.3426 7.66889 65.4557C7.78208 65.5689 7.91647 65.6587 8.06437 65.7199C8.21228 65.7811 8.3708 65.8126 8.53088 65.8125H69.4684C69.6284 65.8126 69.787 65.7811 69.9349 65.7199C70.0828 65.6587 70.2172 65.5689 70.3304 65.4557C70.4436 65.3426 70.5333 65.2082 70.5945 65.0603C70.6558 64.9123 70.6872 64.7538 70.6871 64.5938V23.1563C70.6872 22.9962 70.6558 22.8377 70.5945 22.6897C70.5333 22.5418 70.4436 22.4075 70.3304 22.2943C70.2172 22.1811 70.0828 22.0913 69.9349 22.0301C69.787 21.9689 69.6284 21.9374 69.4684 21.9375H8.53088C8.3708 21.9374 8.21228 21.9689 8.06437 22.0301C7.91647 22.0913 7.78208 22.1811 7.66889 22.2943C7.5557 22.4075 7.46593 22.5418 7.40471 22.6897C7.3435 22.8377 7.31204 22.9962 7.31213 23.1563V40.4433C6.6072 40.699 5.9981 41.1655 5.56764 41.7795C5.13718 42.3935 4.90625 43.1251 4.90625 43.875C4.90625 44.6248 5.13718 45.3565 5.56764 45.9705C5.9981 46.5844 6.6072 47.051 7.31213 47.3066ZM68.2496 24.375V63.375H9.74963V47.3067C10.4546 47.051 11.0637 46.5845 11.4941 45.9705C11.9246 45.3565 12.1555 44.6249 12.1555 43.875C12.1555 43.1251 11.9246 42.3935 11.4941 41.7795C11.0637 41.1655 10.4546 40.699 9.74963 40.4433V24.375H68.2496ZM8.53088 42.6562C8.85113 42.6608 9.15672 42.7912 9.38159 43.0192C9.60645 43.2473 9.73251 43.5547 9.73251 43.875C9.73251 44.1953 9.60645 44.5027 9.38159 44.7308C9.15672 44.9588 8.85113 45.0892 8.53088 45.0938C8.21063 45.0892 7.90503 44.9588 7.68017 44.7308C7.4553 44.5027 7.32924 44.1953 7.32924 43.875C7.32924 43.5547 7.4553 43.2473 7.68017 43.0192C7.90503 42.7912 8.21063 42.6608 8.53088 42.6562Z" fill="#8E7C71"/>
<path d="M27.4184 53.155C27.617 53.41 27.9087 53.5757 28.2294 53.6156C28.5502 53.6556 28.8736 53.5665 29.1287 53.3681L51.0662 36.3056C51.194 36.2078 51.3013 36.0857 51.3817 35.9463C51.4621 35.8069 51.514 35.6529 51.5346 35.4933C51.5552 35.3337 51.544 35.1716 51.5016 35.0163C51.4592 34.8611 51.3865 34.7157 51.2876 34.5887C51.1887 34.4618 51.0657 34.3556 50.9256 34.2764C50.7855 34.1972 50.6311 34.1466 50.4713 34.1274C50.3115 34.1082 50.1495 34.1208 49.9946 34.1645C49.8398 34.2083 49.6951 34.2823 49.5689 34.3822L27.6314 51.4447C27.5051 51.543 27.3993 51.6652 27.3203 51.8043C27.2412 51.9435 27.1903 52.0969 27.1705 52.2557C27.1507 52.4146 27.1624 52.5757 27.2049 52.73C27.2475 52.8843 27.32 53.0288 27.4184 53.155Z" fill="#8E7C71"/>
<path d="M27.6837 46.3127C27.9546 46.313 28.2177 46.2225 28.4311 46.0556L42.5348 35.0869C42.7826 34.8859 42.9416 34.5957 42.9779 34.2788C43.0141 33.9618 42.9246 33.6433 42.7286 33.3915C42.5326 33.1398 42.2458 32.9749 41.9296 32.9323C41.6134 32.8897 41.2932 32.9728 41.0375 33.1636L26.9339 44.1324C26.7381 44.2907 26.5958 44.5055 26.5262 44.7475C26.4567 44.9895 26.4633 45.247 26.5452 45.4851C26.6271 45.7233 26.7803 45.9304 26.9839 46.0785C27.1876 46.2265 27.4319 46.3083 27.6837 46.3127Z" fill="#8E7C71"/>
<path d="M49.5688 41.6947L35.4651 52.6634C35.2175 52.8645 35.0586 53.1546 35.0225 53.4715C34.9864 53.7884 35.0759 54.1068 35.2718 54.3584C35.4677 54.6101 35.7545 54.775 36.0705 54.8176C36.3866 54.8603 36.7068 54.7774 36.9624 54.5867L51.0661 43.618C51.3135 43.4168 51.4723 43.1268 51.5083 42.81C51.5444 42.4932 51.4549 42.1749 51.2591 41.9233C51.0632 41.6717 50.7765 41.5069 50.4606 41.4641C50.1446 41.4214 49.8245 41.5042 49.5688 41.6947Z" fill="#8E7C71"/>
<path d="M65.8125 12.1875V8.53123C65.808 8.21098 65.6776 7.90538 65.4495 7.68052C65.2214 7.45565 64.914 7.32959 64.5938 7.32959C64.2735 7.32959 63.9661 7.45565 63.738 7.68052C63.5099 7.90538 63.3795 8.21098 63.375 8.53123V12.1875C63.3795 12.5077 63.5099 12.8133 63.738 13.0382C63.9661 13.263 64.2735 13.3891 64.5938 13.3891C64.914 13.3891 65.2214 13.263 65.4495 13.0382C65.6776 12.8133 65.808 12.5077 65.8125 12.1875Z" fill="#8E7C71"/>
<path d="M61.0849 14.6986C61.3242 14.6949 61.5572 14.6211 61.7551 14.4866C61.9531 14.3521 62.1074 14.1625 62.1989 13.9414C62.2905 13.7203 62.3154 13.4772 62.2706 13.2421C62.2257 13.007 62.1131 12.7901 61.9465 12.6182L59.3615 10.0331C59.1314 9.81193 58.8238 9.68979 58.5047 9.69293C58.1856 9.69607 57.8805 9.82424 57.6548 10.0499C57.4292 10.2756 57.301 10.5807 57.2979 10.8998C57.2948 11.2189 57.417 11.5265 57.6381 11.7566L60.2231 14.3416C60.3362 14.4549 60.4705 14.5448 60.6184 14.6061C60.7663 14.6674 60.9248 14.6988 61.0849 14.6986Z" fill="#8E7C71"/>
<path d="M68.9637 14.3419L71.5488 11.7568C71.7699 11.5268 71.892 11.2192 71.8888 10.9001C71.8856 10.581 71.7575 10.2759 71.5318 10.0503C71.3062 9.8247 71.0011 9.69656 70.682 9.69342C70.3629 9.69027 70.0554 9.81238 69.8253 10.0335L67.2404 12.6185C67.0193 12.8486 66.8973 13.1561 66.9005 13.4752C66.9036 13.7942 67.0318 14.0993 67.2574 14.3249C67.483 14.5505 67.788 14.6786 68.1071 14.6818C68.4261 14.685 68.7337 14.563 68.9637 14.3419Z" fill="#8E7C71"/>
</svg>
