<svg width="82" height="82" viewBox="0 0 82 82" fill="none" xmlns="http://www.w3.org/2000/svg">
<g id="timing_belt_jb9s2025esre 1" clip-path="url(#clip0_92_262)">
<g id="Group">
<g id="Group_2">
<path id="Vector" d="M19.2178 57.9758C16.5691 57.9758 14.4131 60.1319 14.4131 62.7805C14.4131 65.4292 16.5691 67.5852 19.2178 67.5852C21.8664 67.5852 24.0225 65.4292 24.0225 62.7805C24.0225 60.1319 21.8664 57.9758 19.2178 57.9758Z" fill="#8E7C71"/>
</g>
</g>
<g id="Group_3">
<g id="Group_4">
<path id="Vector_2" d="M77.8518 30.6811H77.8515C77.8507 30.6805 77.8504 30.6794 77.8504 30.6794L37.0131 2.53991C34.5991 0.874123 31.7696 -0.00561523 28.8301 -0.00561523C22.4418 -0.00561523 16.9005 4.09759 15.0377 10.2043L0.832523 57.171C0.831082 57.1756 0.832523 57.1804 0.831082 57.1851C0.280785 58.9868 0.00195312 60.8669 0.00195312 62.7756C0.00195312 73.3727 8.62364 81.9944 19.2207 81.9944C23.0659 81.9944 26.775 80.8635 29.9468 78.724L77.7437 46.5718C77.7476 46.5694 77.7519 46.5689 77.7557 46.5662C80.4137 44.7762 82.002 41.7944 82.002 38.592C82.002 35.4366 80.4512 32.4806 77.8518 30.6811ZM28.8301 9.60376C31.4787 9.60376 33.6348 11.7598 33.6348 14.4084C33.6348 17.0571 31.4787 19.2131 28.8301 19.2131C26.1814 19.2131 24.0254 17.0571 24.0254 14.4084C24.0254 11.7598 26.1814 9.60376 28.8301 9.60376ZM19.2207 72.385C13.921 72.385 9.61133 68.0754 9.61133 62.7756C9.61133 57.4759 13.921 53.1663 19.2207 53.1663C24.5204 53.1663 28.8301 57.4759 28.8301 62.7756C28.8301 68.0754 24.5204 72.385 19.2207 72.385ZM68.2107 47.2035L37.806 67.6361C38.216 66.0672 38.4395 64.4377 38.4395 62.7756C38.4395 52.1786 29.8178 43.5569 19.2207 43.5569C15.5269 43.5569 12.0779 44.6352 9.11725 46.4642L16.5272 21.811C19.0532 25.9925 23.5981 28.8225 28.8301 28.8225C36.7785 28.8225 43.2441 22.3568 43.2441 14.4084C43.2441 13.7662 43.0973 13.1525 43.0137 12.5248L68.3052 29.9293C65.0529 31.4709 62.7832 34.7595 62.7832 38.592C62.7832 42.3865 65.0108 45.6424 68.2107 47.2035Z" fill="#8E7C71"/>
</g>
</g>
</g>
<defs>
<clipPath id="clip0_92_262">
<rect width="82" height="82" fill="white"/>
</clipPath>
</defs>
</svg>
