<svg width="64" height="64" viewBox="0 0 64 64" fill="none" xmlns="http://www.w3.org/2000/svg">
<path d="M37.4559 3.31998C37.3035 3.24187 37.1335 3.20423 36.9623 3.21067C36.7912 3.2171 36.6245 3.2674 36.4784 3.35674C36.3322 3.44607 36.2115 3.57145 36.1277 3.72086C36.0439 3.87027 35.9999 4.03869 35.9999 4.20998V12H27.9999V4.20998C27.9999 4.03869 27.9559 3.87027 27.8721 3.72086C27.7884 3.57145 27.6676 3.44607 27.5215 3.35674C27.3753 3.2674 27.2087 3.2171 27.0375 3.21067C26.8663 3.20423 26.6964 3.24187 26.5439 3.31998C24.7112 4.25403 23.1497 5.64398 22.0096 7.35612C20.8695 9.06827 20.1892 11.045 20.0341 13.0961C19.879 15.1473 20.2544 17.2038 21.1241 19.0679C21.9937 20.932 23.3285 22.541 24.9999 23.74V55C24.9999 56.8565 25.7374 58.637 27.0502 59.9497C28.3629 61.2625 30.1434 62 31.9999 62C33.8564 62 35.6369 61.2625 36.9497 59.9497C38.2624 58.637 38.9999 56.8565 38.9999 55V23.74C40.6713 22.541 42.0061 20.932 42.8758 19.0679C43.7455 17.2038 44.1208 15.1473 43.9657 13.0961C43.8106 11.045 43.1303 9.06827 41.9902 7.35612C40.8501 5.64398 39.2886 4.25403 37.4559 3.31998ZM37.4559 22.375C37.3167 22.466 37.2023 22.5903 37.1232 22.7366C37.0441 22.8829 37.0028 23.0466 37.0029 23.213V55C37.0029 56.3261 36.4761 57.5978 35.5385 58.5355C34.6008 59.4732 33.329 60 32.0029 60C30.6768 60 29.4051 59.4732 28.4674 58.5355C27.5297 57.5978 27.0029 56.3261 27.0029 55V23.213C27.0031 23.0466 26.9617 22.8829 26.8826 22.7366C26.8035 22.5903 26.6892 22.466 26.5499 22.375C25.2013 21.4996 24.084 20.3115 23.293 18.9117C22.502 17.5119 22.0608 15.9418 22.0068 14.3349C21.9528 12.728 22.2876 11.1318 22.9828 9.68207C23.6781 8.23232 24.7131 6.9719 25.9999 6.00798V13C25.9999 13.2652 26.1053 13.5196 26.2928 13.7071C26.4803 13.8946 26.7347 14 26.9999 14H36.9999C37.2651 14 37.5195 13.8946 37.707 13.7071C37.8946 13.5196 37.9999 13.2652 37.9999 13V6.00798C39.2869 6.97167 40.3221 8.23189 41.0176 9.6815C41.7131 11.1311 42.0482 12.7272 41.9945 14.3341C41.9408 15.941 41.4999 17.5112 40.7092 18.9111C39.9185 20.3111 38.8014 21.4994 37.4529 22.375H37.4559Z" fill="#8E7C71"/>
<path d="M17 32H14V10.162L14.948 7.316C15.0092 7.13571 15.0168 6.94154 14.97 6.757L13.97 2.757C13.9158 2.54075 13.791 2.34881 13.6152 2.21166C13.4395 2.0745 13.2229 2.00001 13 2H9C8.77707 2.00001 8.56054 2.0745 8.38479 2.21166C8.20905 2.34881 8.08417 2.54075 8.03 2.757L7.03 6.757C6.98315 6.94154 6.99079 7.13571 7.052 7.316L8 10.162V32H5C4.73478 32 4.48043 32.1054 4.29289 32.2929C4.10536 32.4804 4 32.7348 4 33V55C4 56.8565 4.7375 58.637 6.05025 59.9497C7.36301 61.2625 9.14348 62 11 62C12.8565 62 14.637 61.2625 15.9497 59.9497C17.2625 58.637 18 56.8565 18 55V33C18 32.7348 17.8946 32.4804 17.7071 32.2929C17.5196 32.1054 17.2652 32 17 32ZM9.948 9.684L9.041 6.96L9.781 4H12.219L12.959 6.96L12.052 9.684C12.0178 9.78586 12.0002 9.89256 12 10V32H10V10C9.99976 9.89256 9.9822 9.78586 9.948 9.684ZM16 34V36.938H6V34H16ZM11 60C9.67441 59.9984 8.40356 59.4711 7.46622 58.5338C6.52888 57.5964 6.00159 56.3256 6 55V38.938H7V46H9V38.938H16V55C15.9984 56.3256 15.4711 57.5964 14.5338 58.5338C13.5964 59.4711 12.3256 59.9984 11 60Z" fill="#8E7C71"/>
<path d="M32 52C31.4067 52 30.8266 52.1759 30.3333 52.5056C29.8399 52.8352 29.4554 53.3038 29.2284 53.852C29.0013 54.4001 28.9419 55.0033 29.0576 55.5853C29.1734 56.1672 29.4591 56.7018 29.8787 57.1213C30.2982 57.5409 30.8328 57.8266 31.4147 57.9424C31.9967 58.0581 32.5999 57.9987 33.148 57.7716C33.6962 57.5446 34.1648 57.1601 34.4944 56.6667C34.8241 56.1734 35 55.5933 35 55C35 54.2044 34.6839 53.4413 34.1213 52.8787C33.5587 52.3161 32.7957 52 32 52ZM32 56C31.8022 56 31.6089 55.9414 31.4444 55.8315C31.28 55.7216 31.1518 55.5654 31.0761 55.3827C31.0004 55.2 30.9806 54.9989 31.0192 54.8049C31.0578 54.6109 31.153 54.4327 31.2929 54.2929C31.4327 54.153 31.6109 54.0578 31.8049 54.0192C31.9989 53.9806 32.2 54.0004 32.3827 54.0761C32.5654 54.1518 32.7216 54.28 32.8315 54.4444C32.9414 54.6089 33 54.8022 33 55C33 55.2652 32.8946 55.5196 32.7071 55.7071C32.5196 55.8946 32.2652 56 32 56Z" fill="#8E7C71"/>
<path d="M9 48H7V50H9V48Z" fill="#8E7C71"/>
<path d="M59 31.9998H56V6.99982C56.0017 6.84509 55.9675 6.69208 55.9 6.55282L53.9 2.55282C53.8076 2.39785 53.6765 2.26952 53.5197 2.1804C53.3628 2.09129 53.1854 2.04443 53.005 2.04443C52.8246 2.04443 52.6472 2.09129 52.4903 2.1804C52.3335 2.26952 52.2024 2.39785 52.11 2.55282L50.11 6.55282C50.0391 6.69124 50.0014 6.8443 50 6.99982V31.9998H47C46.7348 31.9998 46.4804 32.1052 46.2929 32.2927C46.1054 32.4803 46 32.7346 46 32.9998V54.9998C46 56.8563 46.7375 58.6368 48.0503 59.9496C49.363 61.2623 51.1435 61.9998 53 61.9998C54.8565 61.9998 56.637 61.2623 57.9497 59.9496C59.2625 58.6368 60 56.8563 60 54.9998V32.9998C60 32.7346 59.8946 32.4803 59.7071 32.2927C59.5196 32.1052 59.2652 31.9998 59 31.9998ZM52 7.23582L53 5.23582L54 7.23582V31.9998H52V7.23582ZM58 33.9998V36.9378H48V33.9998H58ZM53 59.9998C51.6744 59.9982 50.4036 59.4709 49.4662 58.5336C48.5289 57.5963 48.0016 56.3254 48 54.9998V38.9378H49V45.9998H51V38.9378H58V54.9998C57.9984 56.3254 57.4711 57.5963 56.5338 58.5336C55.5964 59.4709 54.3256 59.9982 53 59.9998Z" fill="#8E7C71"/>
<path d="M51 48H49V50H51V48Z" fill="#8E7C71"/>
</svg>
