<svg width="91" height="92" viewBox="0 0 91 92" fill="none" xmlns="http://www.w3.org/2000/svg">
<g id="undercarriage_ttdi7suz43t0 1" clip-path="url(#clip0_92_124)">
<path id="Vector" d="M83.7209 23.3196H86.2644C88.6917 23.3196 90.6649 21.3099 90.6649 18.8377V4.481C90.6649 2.00874 88.6917 -0.000976562 86.2644 -0.000976562H83.7209C81.2936 -0.000976562 79.3205 2.00874 79.3205 4.481V6.24152H52.6201C50.969 4.02742 48.3657 2.68821 45.6039 2.68821C42.8422 2.68821 40.2389 4.02742 38.5878 6.24152H11.8874V4.481C11.8874 2.00874 9.91424 -0.000976562 7.48693 -0.000976562H4.94345C2.51615 -0.000976562 0.542969 2.00874 0.542969 4.481V18.8377C0.542969 21.3099 2.51615 23.3196 4.94345 23.3196H7.48693C9.91424 23.3196 11.8874 21.3099 11.8874 18.8377V16.4407H38.1654C38.7973 17.4572 39.6263 18.3375 40.5962 19.0223V32.9541H40.0276C37.1163 32.9541 34.7471 35.3672 34.7471 38.3325V53.4565C34.7471 56.4217 37.1163 58.8348 40.0276 58.8348H40.5962V72.7594C39.3729 73.6254 38.3748 74.8032 37.713 76.1604H11.8874V72.9513C11.8874 70.479 9.91424 68.4693 7.48693 68.4693H4.94345C2.51615 68.4693 0.542969 70.479 0.542969 72.9513V87.3079C0.542969 89.7802 2.51615 91.7899 4.94345 91.7899H7.48693C9.91424 91.7899 11.8874 89.7802 11.8874 87.3079V86.3595H39.276C40.9289 88.1075 43.189 89.0935 45.6039 89.0935C48.0189 89.0935 50.279 88.1075 51.9318 86.3595H79.3205V87.3079C79.3205 89.7802 81.2936 91.7899 83.7209 91.7899H86.2644C88.6917 91.7899 90.6649 89.7802 90.6649 87.3079V72.9513C90.6649 70.479 88.6917 68.4693 86.2644 68.4693H83.7209C81.2936 68.4693 79.3205 70.479 79.3205 72.9513V76.1604H53.4949C52.8331 74.8032 51.835 73.6254 50.6117 72.7594V58.8348H51.1802C54.0916 58.8348 56.4608 56.4217 56.4608 53.4565V38.3325C56.4608 35.3672 54.0916 32.9541 51.1802 32.9541H50.6117V19.0223C51.5816 18.3375 52.4106 17.4572 53.0425 16.4407H79.3205V18.8377C79.3205 21.3099 81.2936 23.3196 83.7209 23.3196Z" fill="#444444"/>
</g>
<defs>
<clipPath id="clip0_92_124">
<rect width="90.1219" height="91.7909" fill="white" transform="translate(0.542969)"/>
</clipPath>
</defs>
</svg>
